<?xml version="1.0" encoding="UTF-8" standalone="no"?>
<svg
   width="22"
   height="22"
   version="1"
   id="svg4"
   sodipodi:docname="application-x-smb-server.svg"
   inkscape:version="1.4.2 (ebf0e940d0, 2025-05-08)"
   xmlns:inkscape="http://www.inkscape.org/namespaces/inkscape"
   xmlns:sodipodi="http://sodipodi.sourceforge.net/DTD/sodipodi-0.dtd"
   xmlns="http://www.w3.org/2000/svg"
   xmlns:svg="http://www.w3.org/2000/svg">
  <sodipodi:namedview
     id="namedview4"
     pagecolor="#505050"
     bordercolor="#ffffff"
     borderopacity="1"
     inkscape:showpageshadow="0"
     inkscape:pageopacity="0"
     inkscape:pagecheckerboard="1"
     inkscape:deskcolor="#505050"
     inkscape:zoom="9.0909091"
     inkscape:cx="7.15"
     inkscape:cy="18.7"
     inkscape:window-width="1176"
     inkscape:window-height="608"
     inkscape:window-x="0"
     inkscape:window-y="0"
     inkscape:window-maximized="1"
     inkscape:current-layer="svg4" />
  <defs
     id="defs1">
    <style
       id="current-color-scheme"
       type="text/css">.ColorScheme-Highlight{color:#00ff00;}</style>
  </defs>
  <rect
     style="opacity:0.2"
     width="20"
     height="12"
     x="1"
     y="8.5"
     rx="1"
     ry="1"
     id="rect1" />
  <path
     style="display:inline;fill:currentColor"
     d="m 1,16 c 0,0.554 0.446,1 1,1 h 18 c 0.554,0 1,-0.446 1,-1 V 5 C 21,4.446 20.554,4 20,4 H 11 C 9.5,4 9,2 7.5,2 H 2 C 1.446,2 1,2.446 1,3"
     id="path1"
     class="ColorScheme-Highlight" />
  <path
     style="display:inline;fill:#000000;fill-opacity:1;opacity:0.25"
     d="m 1,16 c 0,0.554 0.446,1 1,1 h 18 c 0.554,0 1,-0.446 1,-1 V 5 C 21,4.446 20.554,4 20,4 H 11 C 9.5,4 9,2 7.5,2 H 2 C 1.446,2 1,2.446 1,3"
     id="path5" />
  <rect
     style="opacity:0.2"
     width="20"
     height="12"
     x="1"
     y="7.5"
     rx="1"
     ry="1"
     id="rect2" />
  <rect
     style="fill:#e4e4e4"
     width="16"
     height="8"
     x="3"
     y="6"
     rx="1"
     ry="1"
     id="rect3" />
  <rect
     style="fill:currentColor"
     width="20"
     height="12"
     x="1"
     y="8"
     rx="1"
     ry="1"
     id="rect4"
     class="ColorScheme-Highlight" />
  <path
     style="opacity:0.2;fill:#ffffff"
     d="M 2,2 C 1.446,2 1,2.446 1,3 V 3.5 C 1,2.946 1.446,2.5 2,2.5 H 7.5 C 9,2.5 9.5,4.5 11,4.5 H 20 C 20.554,4.5 21,4.946 21,5.5 V 5 C 21,4.446 20.554,4 20,4 H 11 C 9.5,4 9,2 7.5,2 Z"
     id="path4" />
  <path
     style="fill:#000000;fill-opacity:1;opacity:0.6"
     d="m 11.000144,10 a 2,2 0 0 0 -2.0000996,2 2,2 0 0 0 2.0000996,2 2,2 0 0 0 2,-2 2,2 0 0 0 -2,-2 z m -1.6934996,4.062 c -1.2634,0.216 -2.1798,0.652 -2.2949,1.174 -0.0017,0.006 0.0012,0.013 0,0.018 -0.004,0.02 -0.0041,0.038 -0.0058,0.058 -6e-4,0.01 -0.0059,0.016 -0.0059,0.026 -10e-5,0.003 0,0.003 0,0.006 v 1.388 c 0,0.149 0.0884,0.268 0.1992,0.268 h 7.6018996 c 0.111,0 0.199,-0.119 0.199,-0.268 v -1.404 c -0.001,-0.032 -0.012,-0.06 -0.02,-0.092 -0.115,-0.521 -1.029,-0.958 -2.289,-1.174 A 2,2 0 0 1 11.000144,15 2,2 0 0 1 9.3066444,14.062 Z"
     id="path5-6" />
</svg>
