<?xml version="1.0" encoding="UTF-8" standalone="no"?>
<svg
   width="24"
   height="24"
   version="1"
   id="svg4"
   sodipodi:docname="folder-comic.svg"
   inkscape:version="1.4.2 (ebf0e940d0, 2025-05-08)"
   xmlns:inkscape="http://www.inkscape.org/namespaces/inkscape"
   xmlns:sodipodi="http://sodipodi.sourceforge.net/DTD/sodipodi-0.dtd"
   xmlns="http://www.w3.org/2000/svg"
   xmlns:svg="http://www.w3.org/2000/svg">
  <sodipodi:namedview
     id="namedview4"
     pagecolor="#505050"
     bordercolor="#ffffff"
     borderopacity="1"
     inkscape:showpageshadow="0"
     inkscape:pageopacity="0"
     inkscape:pagecheckerboard="1"
     inkscape:deskcolor="#505050"
     inkscape:zoom="17.206265"
     inkscape:cx="10.519424"
     inkscape:cy="15.052657"
     inkscape:window-width="1176"
     inkscape:window-height="608"
     inkscape:window-x="0"
     inkscape:window-y="0"
     inkscape:window-maximized="1"
     inkscape:current-layer="svg4" />
  <defs
     id="defs1">
    <style
       id="current-color-scheme"
       type="text/css">
  .ColorScheme-Highlight{color:#00ff00;}
 </style>
  </defs>
  <rect
     style="display:inline;opacity:0.2"
     width="20"
     height="12"
     x="2"
     y="9.5"
     rx="1"
     ry="1"
     id="rect1" />
  <path
     style="display:inline;fill:currentColor"
     d="m 2,17 c 0,0.554 0.446,1 1,1 h 18 c 0.554,0 1,-0.446 1,-1 V 6 C 22,5.446 21.554,5 21,5 H 12 C 10.5,5 10,3 8.5,3 H 3 C 2.446,3 2,3.446 2,4"
     id="path5"
     class="ColorScheme-Highlight" />
  <path
     style="display:inline;fill:#000000;fill-opacity:1;opacity:0.25"
     d="m 2,17 c 0,0.554 0.446,1 1,1 h 18 c 0.554,0 1,-0.446 1,-1 V 6 C 22,5.446 21.554,5 21,5 H 12 C 10.5,5 10,3 8.5,3 H 3 C 2.446,3 2,3.446 2,4"
     id="path1" />
  <rect
     style="display:inline;opacity:0.2"
     width="20"
     height="12"
     x="2"
     y="8.5"
     rx="1"
     ry="1"
     id="rect2" />
  <rect
     style="fill:#e4e4e4"
     width="16"
     height="8"
     x="4"
     y="7"
     rx="1"
     ry="1"
     id="rect3" />
  <rect
     style="fill:currentColor"
     width="20"
     height="12"
     x="2"
     y="9"
     rx="1"
     ry="1"
     id="rect4"
     class="ColorScheme-Highlight" />
  <path
     style="display:inline;opacity:0.2;fill:#ffffff"
     d="M 3,3 C 2.446,3 2,3.446 2,4 v 0.5 c 0,-0.554 0.446,-1 1,-1 h 5.5 c 1.5,0 2,2 3.5,2 h 9 c 0.554,0 1,0.446 1,1 V 6 C 22,5.446 21.554,5 21,5 H 12 C 10.5,5 10,3 8.5,3 Z"
     id="path4" />
  <path
     style="display:inline;opacity:0.6;fill:#000000;fill-opacity:1;stroke-width:0.714286"
     d="m 10.571429,12 c 0,2.142857 0,2.142857 -0.274135,2.142857 -0.285812,0 -0.625587,-0.06723 -0.827986,-0.421317 C 9.193269,13.238701 9.5,12 9.5,12 7.7142857,12 7,13.890351 7,15.129185 7,17 8.4285714,17.714286 9.321704,17.714286 c 0,0 -0.5247804,-1.220664 0.168807,-1.428572 0.375995,-0.05975 0.869099,0.349054 1.081193,0.714286 0,0 -0.07631,-0.703389 0.469449,-0.714286 0.545759,-0.0109 0.866466,0.601256 0.958847,1.428572 0.09238,-0.827316 0.413089,-1.439467 0.958848,-1.428572 C 13.504608,16.296607 13.428296,17 13.428296,17 c 0.212094,-0.365232 0.705198,-0.774034 1.081194,-0.714286 0.693586,0.207908 0.168806,1.428572 0.168806,1.428572 C 15.571429,17.714286 17,17 17,15.129185 17,13.890351 16.285714,12 14.5,12 c 0,0 0.306731,1.238701 0.03069,1.72154 -0.2024,0.354086 -0.542174,0.421317 -0.827987,0.421317 -0.274135,0 -0.274135,0 -0.274135,-2.142857 L 12.35714,12.714286 H 12 11.642857 Z"
     id="path6" />
</svg>
