<?xml version="1.0" encoding="UTF-8" standalone="no"?>
<svg
   width="24"
   height="24"
   version="1"
   id="svg4"
   sodipodi:docname="folder-favorites.svg"
   inkscape:version="1.4.2 (ebf0e940d0, 2025-05-08)"
   xmlns:inkscape="http://www.inkscape.org/namespaces/inkscape"
   xmlns:sodipodi="http://sodipodi.sourceforge.net/DTD/sodipodi-0.dtd"
   xmlns="http://www.w3.org/2000/svg"
   xmlns:svg="http://www.w3.org/2000/svg">
  <sodipodi:namedview
     id="namedview4"
     pagecolor="#505050"
     bordercolor="#ffffff"
     borderopacity="1"
     inkscape:showpageshadow="0"
     inkscape:pageopacity="0"
     inkscape:pagecheckerboard="1"
     inkscape:deskcolor="#505050"
     inkscape:zoom="12.166667"
     inkscape:cx="7.438356"
     inkscape:cy="12"
     inkscape:window-width="1176"
     inkscape:window-height="608"
     inkscape:window-x="0"
     inkscape:window-y="0"
     inkscape:window-maximized="1"
     inkscape:current-layer="svg4" />
  <defs
     id="defs1">
    <style
       id="current-color-scheme"
       type="text/css">
  .ColorScheme-Highlight{color:#00ff00;}
 </style>
  </defs>
  <rect
     style="display:inline;opacity:0.2"
     width="20"
     height="12"
     x="2"
     y="9.5"
     rx="1"
     ry="1"
     id="rect1" />
  <path
     style="display:inline;fill:currentColor"
     d="m 2,17 c 0,0.554 0.446,1 1,1 h 18 c 0.554,0 1,-0.446 1,-1 V 6 C 22,5.446 21.554,5 21,5 H 12 C 10.5,5 10,3 8.5,3 H 3 C 2.446,3 2,3.446 2,4"
     id="path5"
     class="ColorScheme-Highlight" />
  <path
     style="display:inline;fill:#000000;fill-opacity:1;opacity:0.25"
     d="m 2,17 c 0,0.554 0.446,1 1,1 h 18 c 0.554,0 1,-0.446 1,-1 V 6 C 22,5.446 21.554,5 21,5 H 12 C 10.5,5 10,3 8.5,3 H 3 C 2.446,3 2,3.446 2,4"
     id="path1" />
  <rect
     style="display:inline;opacity:0.2"
     width="20"
     height="12"
     x="2"
     y="8.5"
     rx="1"
     ry="1"
     id="rect2" />
  <rect
     style="fill:#e4e4e4"
     width="16"
     height="8"
     x="4"
     y="7"
     rx="1"
     ry="1"
     id="rect3" />
  <rect
     style="fill:currentColor"
     width="20"
     height="12"
     x="2"
     y="9"
     rx="1"
     ry="1"
     id="rect4"
     class="ColorScheme-Highlight" />
  <path
     style="display:inline;opacity:0.2;fill:#ffffff"
     d="M 3,3 C 2.446,3 2,3.446 2,4 v 0.5 c 0,-0.554 0.446,-1 1,-1 h 5.5 c 1.5,0 2,2 3.5,2 h 9 c 0.554,0 1,0.446 1,1 V 6 C 22,5.446 21.554,5 21,5 H 12 C 10.5,5 10,3 8.5,3 Z"
     id="path4" />
  <path
     style="fill:#000000;fill-opacity:1;opacity:0.06"
     d="m 14.126242,12.000019 c -0.12,10e-4 -0.23,0.039 -0.334,0.113 -0.263,0.189 -0.814,0.39 -1.783,0.391 -0.97,0.001 -1.52,-0.202 -1.783,-0.391 -0.104,-0.074 -0.203,-0.11 -0.3243998,-0.109 -0.1212,0 -0.2599,0.033 -0.4024,0.109 -0.5188,0.274 -0.9964,1.17 -1.2558,2.332 -0.2212,0.988 -0.3018,2.338 -0.1699,2.881 0.115,0.467 0.3139,0.674 0.666,0.674 0.523,-0.009 1.1791,-0.591 1.5954998,-1.377 0.302,-0.435 1,-0.633 1.674,-0.611 0.674,-0.024 1.372,0.176 1.674,0.611 0.417,0.785 1.073,1.368 1.596,1.377 0.352,0 0.551,-0.207 0.666,-0.674 0.131,-0.543 0.051,-1.893 -0.17,-2.881 -0.259,-1.162 -0.736,-2.058 -1.254,-2.332 -0.143,-0.076 -0.274,-0.114 -0.395,-0.113 z m -4.117,1 a 1,1 0 0 1 1,1 1,1 0 0 1 -1,1 1,1 0 0 1 -0.9999998,-1 1,1 0 0 1 0.9999998,-1 z m 3.5,0 a 0.5001,0.49995 0 0 1 0.5,0.5 0.5001,0.49995 0 0 1 -0.5,0.5 0.5001,0.49995 0 0 1 -0.5,-0.5 0.5001,0.49995 0 0 1 0.5,-0.5 z m 1,1 a 0.5001,0.49995 0 0 1 0.5,0.5 0.5001,0.49995 0 0 1 -0.5,0.5 0.5001,0.49995 0 0 1 -0.5,-0.5 0.5001,0.49995 0 0 1 0.5,-0.5 z"
     id="path5-2" />
  <path
     style="fill:#000000;fill-opacity:1;opacity:0.6"
     d="m 12,11 -1.059,3 H 8 L 10.286,16 9.5279,19 12,17.318 14.472,19 13.714,16 16,14 h -2.941 z"
     id="path5-7" />
</svg>
