<?xml version="1.0" encoding="UTF-8" standalone="no"?>
<svg
   width="24"
   height="24"
   version="1"
   id="svg4"
   sodipodi:docname="folder-github.svg"
   inkscape:version="1.4.2 (ebf0e940d0, 2025-05-08)"
   xmlns:inkscape="http://www.inkscape.org/namespaces/inkscape"
   xmlns:sodipodi="http://sodipodi.sourceforge.net/DTD/sodipodi-0.dtd"
   xmlns="http://www.w3.org/2000/svg"
   xmlns:svg="http://www.w3.org/2000/svg">
  <sodipodi:namedview
     id="namedview4"
     pagecolor="#505050"
     bordercolor="#ffffff"
     borderopacity="1"
     inkscape:showpageshadow="0"
     inkscape:pageopacity="0"
     inkscape:pagecheckerboard="1"
     inkscape:deskcolor="#505050"
     inkscape:zoom="12.166667"
     inkscape:cx="7.4794518"
     inkscape:cy="12"
     inkscape:window-width="1176"
     inkscape:window-height="608"
     inkscape:window-x="0"
     inkscape:window-y="0"
     inkscape:window-maximized="1"
     inkscape:current-layer="svg4" />
  <defs
     id="defs1">
    <style
       id="current-color-scheme"
       type="text/css">
  .ColorScheme-Highlight{color:#00ff00;}
 </style>
  </defs>
  <rect
     style="display:inline;opacity:0.2"
     width="20"
     height="12"
     x="2"
     y="9.5"
     rx="1"
     ry="1"
     id="rect1" />
  <path
     style="display:inline;fill:currentColor"
     d="m 2,17 c 0,0.554 0.446,1 1,1 h 18 c 0.554,0 1,-0.446 1,-1 V 6 C 22,5.446 21.554,5 21,5 H 12 C 10.5,5 10,3 8.5,3 H 3 C 2.446,3 2,3.446 2,4"
     id="path5"
     class="ColorScheme-Highlight" />
  <path
     style="display:inline;fill:#000000;fill-opacity:1;opacity:0.25"
     d="m 2,17 c 0,0.554 0.446,1 1,1 h 18 c 0.554,0 1,-0.446 1,-1 V 6 C 22,5.446 21.554,5 21,5 H 12 C 10.5,5 10,3 8.5,3 H 3 C 2.446,3 2,3.446 2,4"
     id="path1" />
  <rect
     style="display:inline;opacity:0.2"
     width="20"
     height="12"
     x="2"
     y="8.5"
     rx="1"
     ry="1"
     id="rect2" />
  <rect
     style="fill:#e4e4e4"
     width="16"
     height="8"
     x="4"
     y="7"
     rx="1"
     ry="1"
     id="rect3" />
  <rect
     style="fill:currentColor"
     width="20"
     height="12"
     x="2"
     y="9"
     rx="1"
     ry="1"
     id="rect4"
     class="ColorScheme-Highlight" />
  <path
     style="display:inline;opacity:0.2;fill:#ffffff"
     d="M 3,3 C 2.446,3 2,3.446 2,4 v 0.5 c 0,-0.554 0.446,-1 1,-1 h 5.5 c 1.5,0 2,2 3.5,2 h 9 c 0.554,0 1,0.446 1,1 V 6 C 22,5.446 21.554,5 21,5 H 12 C 10.5,5 10,3 8.5,3 Z"
     id="path4" />
  <path
     style="fill:#000000;fill-opacity:1;opacity:0.6"
     d="m 12,11.13 c -2.216,0 -4,1.784 -4,4 0,1.786484 1.159976,3.290064 2.770508,3.80664 V 18.006074 C 9.757983,18.229514 9.544922,17.560761 9.544922,17.560761 9.379327,17.133452 9.140625,17.019746 9.140625,17.019746 8.81011,16.790461 9.165045,16.79416 9.165045,16.79416 c 0.36536,0.02609 0.557617,0.381836 0.557617,0.381836 0.3247,0.56516 0.852195,0.402297 1.05957,0.307617 0.03308,-0.238865 0.127536,-0.30319 0.231446,-0.395605 -0.80825,-0.09335 -1.473188,-0.801869 -1.508789,-1.528006 -0.02175,-0.443633 0.362266,-0.933869 0.595116,-1.192219 -0.03755,-0.09355 -0.163044,-0.869725 0.03515,-1.378775 0,0 0.0191,-0.006 0.05859,-0.0078 0.11845,-0.0055 0.3849,0.318844 0.90625,0.677794 0.314772,-0.09043 0.648517,-0.132716 0.900001,-0.134766 0.283566,-0.0023 0.569923,0.04644 0.865811,0.134766 0.5215,-0.35895 0.854656,-0.68427 0.972656,-0.678771 h 10e-4 c 0.03945,0.0018 0.05859,0.0078 0.05859,0.0078 0.19866,0.50903 0.07345,1.286202 0.03614,1.379751 0.23326,0.258401 0.570033,0.752351 0.565804,1.19222 -0.0089,0.93044 -0.850433,1.433571 -1.661133,1.525076 0.130503,0.1142 0.163086,0.340642 0.163086,0.685547 0,0.41656 -0.001,0.68732 -0.002,0.859375 v 0.370117 C 14.728287,18.557776 16,16.999958 16,15.13 c 0,-2.216 -1.784,-4 -4,-4 z"
     id="path5-2" />
</svg>
