<?xml version="1.0" encoding="UTF-8" standalone="no"?>
<svg
   width="24"
   height="24"
   version="1"
   id="svg4"
   sodipodi:docname="folder-onedrive.svg"
   inkscape:version="1.4.2 (ebf0e940d0, 2025-05-08)"
   xmlns:inkscape="http://www.inkscape.org/namespaces/inkscape"
   xmlns:sodipodi="http://sodipodi.sourceforge.net/DTD/sodipodi-0.dtd"
   xmlns="http://www.w3.org/2000/svg"
   xmlns:svg="http://www.w3.org/2000/svg">
  <sodipodi:namedview
     id="namedview4"
     pagecolor="#505050"
     bordercolor="#ffffff"
     borderopacity="1"
     inkscape:showpageshadow="0"
     inkscape:pageopacity="0"
     inkscape:pagecheckerboard="1"
     inkscape:deskcolor="#505050"
     inkscape:zoom="12.166667"
     inkscape:cx="11.794521"
     inkscape:cy="11.09589"
     inkscape:window-width="1176"
     inkscape:window-height="608"
     inkscape:window-x="0"
     inkscape:window-y="0"
     inkscape:window-maximized="1"
     inkscape:current-layer="svg4" />
  <defs
     id="defs1">
    <style
       id="current-color-scheme"
       type="text/css">
  .ColorScheme-Highlight{color:#00ff00;}
 </style>
  </defs>
  <rect
     style="display:inline;opacity:0.2"
     width="20"
     height="12"
     x="2"
     y="9.5"
     rx="1"
     ry="1"
     id="rect1" />
  <path
     style="display:inline;fill:currentColor"
     d="m 2,17 c 0,0.554 0.446,1 1,1 h 18 c 0.554,0 1,-0.446 1,-1 V 6 C 22,5.446 21.554,5 21,5 H 12 C 10.5,5 10,3 8.5,3 H 3 C 2.446,3 2,3.446 2,4"
     id="path5"
     class="ColorScheme-Highlight" />
  <path
     style="display:inline;fill:#000000;fill-opacity:1;opacity:0.25"
     d="m 2,17 c 0,0.554 0.446,1 1,1 h 18 c 0.554,0 1,-0.446 1,-1 V 6 C 22,5.446 21.554,5 21,5 H 12 C 10.5,5 10,3 8.5,3 H 3 C 2.446,3 2,3.446 2,4"
     id="path1" />
  <rect
     style="display:inline;opacity:0.2"
     width="20"
     height="12"
     x="2"
     y="8.5"
     rx="1"
     ry="1"
     id="rect2" />
  <rect
     style="fill:#e4e4e4"
     width="16"
     height="8"
     x="4"
     y="7"
     rx="1"
     ry="1"
     id="rect3" />
  <rect
     style="fill:currentColor"
     width="20"
     height="12"
     x="2"
     y="9"
     rx="1"
     ry="1"
     id="rect4"
     class="ColorScheme-Highlight" />
  <path
     style="display:inline;opacity:0.2;fill:#ffffff"
     d="M 3,3 C 2.446,3 2,3.446 2,4 v 0.5 c 0,-0.554 0.446,-1 1,-1 h 5.5 c 1.5,0 2,2 3.5,2 h 9 c 0.554,0 1,0.446 1,1 V 6 C 22,5.446 21.554,5 21,5 H 12 C 10.5,5 10,3 8.5,3 Z"
     id="path4" />
  <path
     style="fill:#000000;fill-opacity:1;opacity:0.6"
     d="m 12.5,11 c -0.871735,0.0011 -1.679919,0.456316 -2.132813,1.201172 C 10.096909,12.069817 9.800505,12.001057 9.5,12 c -1.104569,0 -2,0.89543 -2,2 2.94e-4,0.0065 5.76e-4,0.01302 9.77e-4,0.01953 C 6.640158,14.143281 6.000856,14.880355 6,15.75 6,16.716498 6.783502,17.5 7.75,17.5 8.067187,17.4988 8.378072,17.41133 8.649414,17.24707 8.555114,17.015644 8.5,16.763971 8.5,16.5 8.5,15.548543 9.189254,14.783176 10.083984,14.584961 10.289857,13.413677 11.272138,12.5 12.5,12.5 h 9.76e-4 c 0.822411,10e-4 1.518645,0.467044 1.980469,1.125976 C 14.654023,13.578196 14.819683,13.500163 15,13.5 15,12.119288 13.880712,11 12.5,11 Z m 0,2 a 2,2 0 0 0 -2,2 1.5,1.5 0 0 0 -1.5,1.5 1.5,1.5 0 0 0 1.5,1.5 h 6.25 A 1.25,1.25 0 0 0 18,16.75 1.25,1.25 0 0 0 16.75,15.5 1.25,1.25 0 0 0 16.499023,15.52734 1.5,1.5 0 0 0 16.5,15.5 1.5,1.5 0 0 0 15,14 1.5,1.5 0 0 0 14.315429,14.166015 2,2 0 0 0 12.5,13 Z"
     id="path5-2" />
</svg>
