<?xml version="1.0" encoding="UTF-8" standalone="no"?>
<svg
   width="24"
   height="24"
   version="1"
   id="svg4"
   sodipodi:docname="folder-java.svg"
   inkscape:version="1.4.2 (ebf0e940d0, 2025-05-08)"
   xmlns:inkscape="http://www.inkscape.org/namespaces/inkscape"
   xmlns:sodipodi="http://sodipodi.sourceforge.net/DTD/sodipodi-0.dtd"
   xmlns="http://www.w3.org/2000/svg"
   xmlns:svg="http://www.w3.org/2000/svg">
  <sodipodi:namedview
     id="namedview4"
     pagecolor="#505050"
     bordercolor="#ffffff"
     borderopacity="1"
     inkscape:showpageshadow="0"
     inkscape:pageopacity="0"
     inkscape:pagecheckerboard="1"
     inkscape:deskcolor="#505050"
     inkscape:zoom="17.206265"
     inkscape:cx="10.199773"
     inkscape:cy="6.9160855"
     inkscape:window-width="1176"
     inkscape:window-height="608"
     inkscape:window-x="0"
     inkscape:window-y="0"
     inkscape:window-maximized="1"
     inkscape:current-layer="svg4" />
  <defs
     id="defs1">
    <style
       id="current-color-scheme"
       type="text/css">
  .ColorScheme-Highlight{color:#00ff00;}
 </style>
  </defs>
  <rect
     style="display:inline;opacity:0.2"
     width="20"
     height="12"
     x="2"
     y="9.5"
     rx="1"
     ry="1"
     id="rect1" />
  <path
     style="display:inline;fill:currentColor"
     d="m 2,17 c 0,0.554 0.446,1 1,1 h 18 c 0.554,0 1,-0.446 1,-1 V 6 C 22,5.446 21.554,5 21,5 H 12 C 10.5,5 10,3 8.5,3 H 3 C 2.446,3 2,3.446 2,4"
     id="path5"
     class="ColorScheme-Highlight" />
  <path
     style="display:inline;fill:#000000;fill-opacity:1;opacity:0.25"
     d="m 2,17 c 0,0.554 0.446,1 1,1 h 18 c 0.554,0 1,-0.446 1,-1 V 6 C 22,5.446 21.554,5 21,5 H 12 C 10.5,5 10,3 8.5,3 H 3 C 2.446,3 2,3.446 2,4"
     id="path1" />
  <rect
     style="display:inline;opacity:0.2"
     width="20"
     height="12"
     x="2"
     y="8.5"
     rx="1"
     ry="1"
     id="rect2" />
  <rect
     style="fill:#e4e4e4"
     width="16"
     height="8"
     x="4"
     y="7"
     rx="1"
     ry="1"
     id="rect3" />
  <rect
     style="fill:currentColor"
     width="20"
     height="12"
     x="2"
     y="9"
     rx="1"
     ry="1"
     id="rect4"
     class="ColorScheme-Highlight" />
  <path
     style="fill:#000000;fill-opacity:1;opacity:0.6"
     d="m 11.586,11 c 0,0 0.413,0.233 0.122,0.844 -0.441,0.921 0.406,1.132 0.406,1.132 0,0 -0.269,-0.217 0.09,-0.977 C 12.6,11.157 11.586,11 11.586,11 Z m 1.6,0.92 c 0,0 -0.821,0.315 -0.292,1.176 0.35,0.57 -0.038,0.853 -0.038,0.853 0,0 0.992,-0.281 0.514,-1.069 -0.431,-0.712 -0.184,-0.96 -0.184,-0.96 z m -2.365,0.023 c 0,0 -0.718,0.548 -0.006,1.221 0.47,0.448 0.162,0.836 0.162,0.836 0,0 0.891,-0.566 0.247,-1.186 -0.582,-0.558 -0.403,-0.87 -0.403,-0.87 z M 10.977,14 H 9 l 1,4 h 4 l 0.138,-0.549 C 14.254,17.48 14.375,17.5 14.5,17.5 15.328,17.5 16,16.828 16,16 16,15.297 15.515,14.711 14.862,14.549 L 15,14 h -4.024 z m 3.765,1.031 c 0.006,10e-4 0.011,0.002 0.017,0.003 0.267,0.071 0.367,0.562 0.224,1.096 -0.14,0.52 -0.46,0.891 -0.725,0.839 z"
     id="path5-6" />
  <path
     style="display:inline;opacity:0.2;fill:#ffffff"
     d="M 3,3 C 2.446,3 2,3.446 2,4 v 0.5 c 0,-0.554 0.446,-1 1,-1 h 5.5 c 1.5,0 2,2 3.5,2 h 9 c 0.554,0 1,0.446 1,1 V 6 C 22,5.446 21.554,5 21,5 H 12 C 10.5,5 10,3 8.5,3 Z"
     id="path4" />
</svg>
