<?xml version="1.0" encoding="UTF-8" standalone="no"?>
<svg
   width="24"
   height="24"
   version="1"
   id="svg4"
   sodipodi:docname="folder-script.svg"
   inkscape:version="1.4.2 (ebf0e940d0, 2025-05-08)"
   xmlns:inkscape="http://www.inkscape.org/namespaces/inkscape"
   xmlns:sodipodi="http://sodipodi.sourceforge.net/DTD/sodipodi-0.dtd"
   xmlns="http://www.w3.org/2000/svg"
   xmlns:svg="http://www.w3.org/2000/svg">
  <sodipodi:namedview
     id="namedview4"
     pagecolor="#505050"
     bordercolor="#ffffff"
     borderopacity="1"
     inkscape:showpageshadow="0"
     inkscape:pageopacity="0"
     inkscape:pagecheckerboard="1"
     inkscape:deskcolor="#505050"
     inkscape:zoom="16"
     inkscape:cx="9.09375"
     inkscape:cy="18.375"
     inkscape:window-width="1176"
     inkscape:window-height="608"
     inkscape:window-x="0"
     inkscape:window-y="0"
     inkscape:window-maximized="1"
     inkscape:current-layer="svg4" />
  <defs
     id="defs1">
    <style
       id="current-color-scheme"
       type="text/css">
  .ColorScheme-Highlight{color:#00ff00;}
 </style>
  </defs>
  <rect
     style="display:inline;opacity:0.2"
     width="20"
     height="12"
     x="2"
     y="9.5"
     rx="1"
     ry="1"
     id="rect1" />
  <path
     style="display:inline;fill:currentColor"
     d="m 2,17 c 0,0.554 0.446,1 1,1 h 18 c 0.554,0 1,-0.446 1,-1 V 6 C 22,5.446 21.554,5 21,5 H 12 C 10.5,5 10,3 8.5,3 H 3 C 2.446,3 2,3.446 2,4"
     id="path5"
     class="ColorScheme-Highlight" />
  <path
     style="display:inline;fill:#000000;fill-opacity:1;opacity:0.25"
     d="m 2,17 c 0,0.554 0.446,1 1,1 h 18 c 0.554,0 1,-0.446 1,-1 V 6 C 22,5.446 21.554,5 21,5 H 12 C 10.5,5 10,3 8.5,3 H 3 C 2.446,3 2,3.446 2,4"
     id="path1" />
  <rect
     style="display:inline;opacity:0.2"
     width="20"
     height="12"
     x="2"
     y="8.5"
     rx="1"
     ry="1"
     id="rect2" />
  <rect
     style="fill:#e4e4e4"
     width="16"
     height="8"
     x="4"
     y="7"
     rx="1"
     ry="1"
     id="rect3" />
  <rect
     style="fill:currentColor"
     width="20"
     height="12"
     x="2"
     y="9"
     rx="1"
     ry="1"
     id="rect4"
     class="ColorScheme-Highlight" />
  <path
     style="display:inline;opacity:0.2;fill:#ffffff"
     d="M 3,3 C 2.446,3 2,3.446 2,4 v 0.5 c 0,-0.554 0.446,-1 1,-1 h 5.5 c 1.5,0 2,2 3.5,2 h 9 c 0.554,0 1,0.446 1,1 V 6 C 22,5.446 21.554,5 21,5 H 12 C 10.5,5 10,3 8.5,3 Z"
     id="path4" />
  <g
     style="fill:#1d344f"
     transform="translate(-2,-1.3599997)"
     id="g6">
    <path
       d="m 15,18.361 h 4 v 1 h -4 z"
       id="path5-5"
       style="opacity:0.6;fill:#000000;fill-opacity:1" />
    <path
       d="m 10.5,13.36 c -0.83,0 -1.5,0.67 -1.5,1.5 0,0.83 0.67,1.5 1.5,1.5 h 1.5 0.5 c 0.28,0 0.5,0.22 0.5,0.5 0,0.28 -0.22,0.51 -0.5,0.5 H 12 10.5 9.09 c 0.21,0.58 0.76,1 1.41,1 h 1.5 0.5 c 0.83,0 1.5,-0.67 1.5,-1.5 0,-0.83 -0.67,-1.5 -1.5,-1.5 H 12 10.5 c -0.28,0 -0.5,-0.22 -0.5,-0.5 0,-0.28 0.22,-0.5 0.5,-0.5 h 1.5 0.5 1.41 c -0.21,-0.58 -0.76,-1 -1.41,-1 H 12 Z"
       id="path6"
       style="opacity:0.6;fill:#000000;fill-opacity:1" />
    <rect
       width="1"
       height="1"
       x="11"
       y="18.360001"
       id="rect9"
       style="opacity:0.6;fill:#000000;fill-opacity:1;stroke-width:0.377964" />
    <rect
       width="1"
       height="1"
       x="11"
       y="16.360001"
       id="rect8"
       style="opacity:0.6;fill:#000000;fill-opacity:1;stroke-width:0.377964" />
    <rect
       width="1"
       height="1"
       x="11"
       y="14.36"
       id="rect7"
       style="opacity:0.6;fill:#000000;fill-opacity:1;stroke-width:0.377964" />
    <rect
       width="1"
       height="1"
       x="11"
       y="12.36"
       id="rect6"
       style="opacity:0.6;fill:#000000;fill-opacity:1;stroke-width:0.377964" />
  </g>
</svg>
