<?xml version="1.0" encoding="UTF-8" standalone="no"?>
<svg
   width="24"
   height="24"
   version="1"
   id="svg4"
   sodipodi:docname="folder-godot.svg"
   inkscape:version="1.4.2 (ebf0e940d0, 2025-05-08)"
   xmlns:inkscape="http://www.inkscape.org/namespaces/inkscape"
   xmlns:sodipodi="http://sodipodi.sourceforge.net/DTD/sodipodi-0.dtd"
   xmlns="http://www.w3.org/2000/svg"
   xmlns:svg="http://www.w3.org/2000/svg">
  <sodipodi:namedview
     id="namedview4"
     pagecolor="#505050"
     bordercolor="#ffffff"
     borderopacity="1"
     inkscape:showpageshadow="0"
     inkscape:pageopacity="0"
     inkscape:pagecheckerboard="1"
     inkscape:deskcolor="#505050"
     inkscape:zoom="12.166667"
     inkscape:cx="21.616438"
     inkscape:cy="13.890411"
     inkscape:window-width="1176"
     inkscape:window-height="608"
     inkscape:window-x="0"
     inkscape:window-y="0"
     inkscape:window-maximized="1"
     inkscape:current-layer="svg4" />
  <defs
     id="defs1">
    <style
       id="current-color-scheme"
       type="text/css">
  .ColorScheme-Highlight{color:#00ff00;}
 </style>
  </defs>
  <rect
     style="display:inline;opacity:0.2"
     width="20"
     height="12"
     x="2"
     y="9.5"
     rx="1"
     ry="1"
     id="rect1" />
  <path
     style="display:inline;fill:currentColor"
     d="m 2,17 c 0,0.554 0.446,1 1,1 h 18 c 0.554,0 1,-0.446 1,-1 V 6 C 22,5.446 21.554,5 21,5 H 12 C 10.5,5 10,3 8.5,3 H 3 C 2.446,3 2,3.446 2,4"
     id="path5"
     class="ColorScheme-Highlight" />
  <path
     style="display:inline;fill:#000000;fill-opacity:1;opacity:0.25"
     d="m 2,17 c 0,0.554 0.446,1 1,1 h 18 c 0.554,0 1,-0.446 1,-1 V 6 C 22,5.446 21.554,5 21,5 H 12 C 10.5,5 10,3 8.5,3 H 3 C 2.446,3 2,3.446 2,4"
     id="path1" />
  <rect
     style="display:inline;opacity:0.2"
     width="20"
     height="12"
     x="2"
     y="8.5"
     rx="1"
     ry="1"
     id="rect2" />
  <rect
     style="fill:#e4e4e4"
     width="16"
     height="8"
     x="4"
     y="7"
     rx="1"
     ry="1"
     id="rect3" />
  <rect
     style="fill:currentColor"
     width="20"
     height="12"
     x="2"
     y="9"
     rx="1"
     ry="1"
     id="rect4"
     class="ColorScheme-Highlight" />
  <path
     style="display:inline;opacity:0.2;fill:#ffffff"
     d="M 3,3 C 2.446,3 2,3.446 2,4 v 0.5 c 0,-0.554 0.446,-1 1,-1 h 5.5 c 1.5,0 2,2 3.5,2 h 9 c 0.554,0 1,0.446 1,1 V 6 C 22,5.446 21.554,5 21,5 H 12 C 10.5,5 10,3 8.5,3 Z"
     id="path4" />
  <path
     style="color:#31363b;display:inline;fill:#000000;fill-opacity:1;stroke:none;stroke-width:0.666667;opacity:0.6"
     d="m 11.186196,11 c -0.365448,0.08124 -0.726174,0.193988 -1.065104,0.364584 0.0077,0.299277 0.02589,0.586327 0.06511,0.877604 -0.131625,0.08433 -0.268987,0.15649 -0.3919277,0.255209 -0.124914,0.0961 -0.2527774,0.18839 -0.3658855,0.30078 C 9.2024204,12.648717 8.9625297,12.508097 8.7161463,12.384115 8.4505642,12.669936 8.2028554,12.979009 8,13.32422 c 0.1594227,0.250248 0.3299214,0.501767 0.4882815,0.697917 v 1.704427 0.216146 0.197917 c 0.00387,3.4e-5 0.00788,-3.59e-4 0.01172,0 l 1.2994798,0.125 c 0.068037,0.0066 0.1215647,0.06203 0.126302,0.130208 l 0.03906,0.572917 1.1341147,0.08073 0.07813,-0.528646 c 0.01012,-0.06861 0.06862,-0.119792 0.138021,-0.119792 h 1.369793 c 0.06937,0 0.1279,0.05119 0.138021,0.119792 l 0.07813,0.528646 1.134114,-0.08073 0.03906,-0.572917 c 0.0048,-0.06818 0.05827,-0.123606 0.126302,-0.130208 l 1.298178,-0.125 c 0.0039,-3.59e-4 0.0078,3.5e-5 0.01172,0 v -0.169271 h 0.0013 v -1.949219 c 0.182871,-0.230253 0.355556,-0.484232 0.48825,-0.697917 -0.202783,-0.34521 -0.451866,-0.654284 -0.717448,-0.940105 -0.246312,0.123982 -0.484972,0.264602 -0.710938,0.414062 -0.11307,-0.11239 -0.240791,-0.204682 -0.365885,-0.30078 -0.122905,-0.09872 -0.260554,-0.17088 -0.391928,-0.255209 0.03911,-0.291277 0.05862,-0.578327 0.06641,-0.877604 C 13.541248,11.193988 13.179435,11.081243 12.813807,11 c -0.145979,0.245343 -0.279568,0.511102 -0.395834,0.770834 -0.137869,-0.02304 -0.276671,-0.0322 -0.415365,-0.03385 -0.001,0 -0.0017,0 -0.0026,0 -8.67e-4,0 -0.0017,0 -0.0026,0 -0.138945,0.0017 -0.27746,0.01081 -0.415365,0.03385 C 11.465843,11.511102 11.332399,11.245343 11.186205,11 Z m -1.027344,3.098959 c 0.432337,0 0.782552,0.350359 0.782552,0.782552 0,0.432482 -0.350215,0.782553 -0.782552,0.782553 -0.432123,0 -0.7825525,-0.350071 -0.7825525,-0.782553 0,-0.432193 0.3504295,-0.782552 0.7825525,-0.782552 z m 3.682293,0 c 0.432087,0 0.782553,0.350359 0.782553,0.782552 0,0.432482 -0.350466,0.782553 -0.782553,0.782553 -0.432409,0 -0.782552,-0.350071 -0.782552,-0.782553 0,-0.432193 0.350142,-0.782552 0.782552,-0.782552 z m -1.841147,0.458334 c 0.13916,0 0.252604,0.102853 0.252604,0.229166 v 0.720053 c 0,0.126421 -0.113444,0.229166 -0.252604,0.229166 -0.13916,0 -0.252604,-0.102745 -0.252604,-0.229166 v -0.720053 c 0,-0.126313 0.113444,-0.229166 0.252604,-0.229166 z m -3.5130215,1.863282 c 5.38e-4,0.125524 0.00133,0.262984 0.00133,0.290364 0,1.233498 1.5650315,1.826516 3.5091155,1.833334 h 0.0026 0.0026 c 1.944083,-0.0068 3.507814,-0.599836 3.507814,-1.833334 0,-0.02789 0.002,-0.164768 0.0026,-0.290364 l -1.167969,0.113281 -0.04037,0.575521 c -0.0048,0.06947 -0.05943,0.125221 -0.128907,0.130209 l -1.384105,0.09896 c -0.0034,2.5e-4 -0.0058,0 -0.0091,0 -0.06875,0 -0.129168,-0.05075 -0.139322,-0.119792 l -0.07813,-0.537761 h -1.128909 l -0.07943,0.537761 c -0.01065,0.07242 -0.07552,0.125138 -0.148438,0.119792 l -1.3841146,-0.09896 c -0.069473,-0.005 -0.124062,-0.06073 -0.128906,-0.130209 l -0.040367,-0.575521 z"
     id="path5-7" />
</svg>
