<?xml version="1.0" encoding="UTF-8" standalone="no"?>
<svg
   width="24"
   height="24"
   version="1"
   id="svg4"
   sodipodi:docname="folder-windows.svg"
   inkscape:version="1.4.2 (ebf0e940d0, 2025-05-08)"
   xmlns:inkscape="http://www.inkscape.org/namespaces/inkscape"
   xmlns:sodipodi="http://sodipodi.sourceforge.net/DTD/sodipodi-0.dtd"
   xmlns="http://www.w3.org/2000/svg"
   xmlns:svg="http://www.w3.org/2000/svg">
  <sodipodi:namedview
     id="namedview4"
     pagecolor="#505050"
     bordercolor="#ffffff"
     borderopacity="1"
     inkscape:showpageshadow="0"
     inkscape:pageopacity="0"
     inkscape:pagecheckerboard="1"
     inkscape:deskcolor="#505050"
     inkscape:zoom="12.166667"
     inkscape:cx="21.616438"
     inkscape:cy="13.890411"
     inkscape:window-width="1176"
     inkscape:window-height="608"
     inkscape:window-x="0"
     inkscape:window-y="0"
     inkscape:window-maximized="1"
     inkscape:current-layer="svg4" />
  <defs
     id="defs1">
    <style
       id="current-color-scheme"
       type="text/css">
  .ColorScheme-Highlight{color:#00ff00;}
 </style>
  </defs>
  <rect
     style="display:inline;opacity:0.2"
     width="20"
     height="12"
     x="2"
     y="9.5"
     rx="1"
     ry="1"
     id="rect1" />
  <path
     style="display:inline;fill:currentColor"
     d="m 2,17 c 0,0.554 0.446,1 1,1 h 18 c 0.554,0 1,-0.446 1,-1 V 6 C 22,5.446 21.554,5 21,5 H 12 C 10.5,5 10,3 8.5,3 H 3 C 2.446,3 2,3.446 2,4"
     id="path5"
     class="ColorScheme-Highlight" />
  <path
     style="display:inline;fill:#000000;fill-opacity:1;opacity:0.25"
     d="m 2,17 c 0,0.554 0.446,1 1,1 h 18 c 0.554,0 1,-0.446 1,-1 V 6 C 22,5.446 21.554,5 21,5 H 12 C 10.5,5 10,3 8.5,3 H 3 C 2.446,3 2,3.446 2,4"
     id="path1" />
  <rect
     style="display:inline;opacity:0.2"
     width="20"
     height="12"
     x="2"
     y="8.5"
     rx="1"
     ry="1"
     id="rect2" />
  <rect
     style="fill:#e4e4e4"
     width="16"
     height="8"
     x="4"
     y="7"
     rx="1"
     ry="1"
     id="rect3" />
  <rect
     style="fill:currentColor"
     width="20"
     height="12"
     x="2"
     y="9"
     rx="1"
     ry="1"
     id="rect4"
     class="ColorScheme-Highlight" />
  <path
     style="display:inline;opacity:0.2;fill:#ffffff"
     d="M 3,3 C 2.446,3 2,3.446 2,4 v 0.5 c 0,-0.554 0.446,-1 1,-1 h 5.5 c 1.5,0 2,2 3.5,2 h 9 c 0.554,0 1,0.446 1,1 V 6 C 22,5.446 21.554,5 21,5 H 12 C 10.5,5 10,3 8.5,3 Z"
     id="path4" />
  <g
     id="g4"
     transform="matrix(0.03321281,0,0,0.03321281,7.7466953,10.746695)">
    <path
       d="m 0,0 c 1.3061728,-0.002062 1.3061728,-0.002062 2.6387329,-0.00416565 0.9523403,0.00359528 1.9046805,0.00719055 2.8858795,0.01089478 1.0050559,-1.4603e-4 2.0101117,-2.9206e-4 3.0456238,-4.4251e-4 3.3276688,6.9761e-4 6.6552818,0.00848296 9.9829408,0.01631165 2.304997,0.0018647 4.609995,0.0032884 6.914993,0.0042877 6.071234,0.0038209 12.142444,0.01364764 18.213669,0.02470398 6.193437,0.0102232 12.386879,0.01479559 18.580322,0.01983642 12.15561,0.01072986 24.311201,0.02780123 36.466797,0.04882813 0.02333,14.8464795 0.04098,29.6929565 0.05181,44.5394505 0.0052,6.893025 0.0122,13.786038 0.02363,20.679055 0.01101,6.645956 0.01684,13.291903 0.01944,19.937868 0.0019,2.541856 0.0055,5.083711 0.01085,7.625561 0.0072,3.54658 0.0083,7.09311 0.0078,10.639701 0.0036,1.06238 0.0072,2.12477 0.01089,3.21936 -0.0014,0.96058 -0.0027,1.92117 -0.0042,2.91087 9.21e-4,0.83975 0.0018,1.67951 0.0028,2.54471 -0.123048,1.90342 -0.123048,1.90342 -1.123048,2.90342 -1.480164,0.0957 -2.964883,0.12189 -4.448135,0.12026 -1.440883,0.002 -1.440883,0.002 -2.910874,0.004 -1.062389,-0.004 -2.124777,-0.007 -3.21936,-0.0109 -1.66808,2.2e-4 -1.66808,2.2e-4 -3.369858,4.4e-4 -3.695662,-7e-4 -7.391275,-0.008 -11.086929,-0.0163 -2.554479,-0.002 -5.108958,-0.003 -7.663437,-0.004 -6.049024,-0.003 -12.098026,-0.0113 -18.147042,-0.0214 -6.885016,-0.0112 -13.770034,-0.0167 -20.655057,-0.0217 -14.166446,-0.0105 -28.332876,-0.0281 -42.499308,-0.0503 -0.06951,-13.32587 -0.122819,-26.651701 -0.155436,-39.97772 -0.01565,-6.187829 -0.03689,-12.375534 -0.07088,-18.563291 -0.0326,-5.971671 -0.05054,-11.943222 -0.05831,-17.914974 -0.0055,-2.278169 -0.01637,-4.556332 -0.03256,-6.83445 -0.02178,-3.191254 -0.02478,-6.382014 -0.02339,-9.57333 -0.01079,-0.941554 -0.02157,-1.883109 -0.03268,-2.853195 0.02785,-5.909493 0.722756,-10.3771444 4.87326,-14.9275667 C -7.7722782,1.3621026 -5.0336461,-0.00613112 0,0 Z"
       fill="#000000"
       transform="translate(24.271042,7.8797455)"
       id="path1-2"
       style="opacity:0.6" />
    <path
       d="m 0,0 c 25.306875,-0.0928125 25.306875,-0.0928125 51.125,-0.1875 5.3227,-0.027312 10.6454,-0.054624 16.129395,-0.0827637 6.510986,-0.0135498 6.510986,-0.0135498 9.561248,-0.0160675 2.125589,-0.0046 4.25117,-0.0151371 6.376709,-0.0303955 3.223944,-0.021982 6.44741,-0.0249906 9.671418,-0.0238495 0.943352,-0.0107943 1.886705,-0.0215886 2.858644,-0.0327101 C 100.9062,-0.34875098 104.52661,0.08034177 109,3 c 3.41246,3.781376 5.1263,6.1627381 5.12025,11.226715 0.002,1.326586 0.002,1.326586 0.004,2.679972 -0.005,1.464723 -0.005,1.464723 -0.0109,2.959036 1.2e-4,1.04102 2.4e-4,2.082041 3.6e-4,3.154607 -7.5e-4,3.381266 -0.008,6.762477 -0.0162,10.143732 -0.001,2.082927 -0.002,4.165853 -0.003,6.24878 -0.005,7.737391 -0.0192,15.474775 -0.0321,23.212158 C 114.04188,79.90875 114.02125,97.1925 114,115 76.38,115 38.76,115 0,115 0,77.05 0,39.1 0,0 Z"
       fill="#000000"
       transform="translate(134,8)"
       id="path2"
       style="opacity:0.6" />
    <path
       d="m 0,0 c 37.95,0 75.9,0 115,0 0,37.62 0,75.24 0,114 -17.20125,0.0825 -34.4025,0.165 -52.125,0.25 -5.427114,0.0364 -10.854229,0.0728 -16.445801,0.11035 -6.637939,0.0181 -6.637939,0.0181 -9.747528,0.0214 -2.16727,0.006 -4.334526,0.0202 -6.501709,0.0405 -3.286953,0.0293 -6.573073,0.0333 -9.860138,0.0318 -0.962089,0.0144 -1.924179,0.0288 -2.915422,0.0436 C 11.608035,114.46183 8.4516369,113.78836 4,110 c -3.12928851,-3.56091 -4.12597763,-6.57237 -4.12025452,-11.271042 -0.001377,-0.868975 -0.002755,-1.73795 -0.004174,-2.633258 0.003598,-0.954147 0.007196,-1.908294 0.0109034,-2.891354 -1.2054e-4,-1.021317 -2.4107e-4,-2.042634 -3.6526e-4,-3.094899 7.4734e-4,-3.311244 0.008368,-6.622432 0.0162344,-9.933666 0.00147,-2.042195 0.0024903,-4.084391 0.0030518,-6.126587 C -0.08935801,66.47029 -0.07539685,58.891395 -0.0625,51.3125 -0.041875,34.379375 -0.02125,17.44625 0,0 Z"
       fill="#000000"
       transform="translate(8,134)"
       id="path3"
       style="opacity:0.6" />
    <path
       d="m 0,0 c 37.62,0 75.24,0 114,0 0.12375,25.554375 0.12375,25.554375 0.25,51.625 0.0364,5.374907 0.0728,10.749814 0.11035,16.287598 0.0181,6.574463 0.0181,6.574463 0.0214,9.654388 0.006,2.146437 0.0202,4.29286 0.0405,6.439209 0.0293,3.255502 0.0333,6.510163 0.0318,9.765778 0.0144,0.952721 0.0288,1.905442 0.0436,2.887033 C 114.46267,102.26553 113.90013,105.66088 110,110 c -5.15068,4.62959 -9.64613,4.55353 -16.228027,4.4541 -1.547386,7.2e-4 -1.547386,7.2e-4 -3.126032,0.001 -3.327648,-0.003 -6.654392,-0.0334 -9.981879,-0.0649 -2.058996,-0.006 -4.117998,-0.01 -6.177001,-0.0122 C 66.866282,114.35748 59.245632,114.30163 51.625,114.25 34.58875,114.1675 17.5525,114.085 0,114 0,76.38 0,38.76 0,0 Z"
       fill="#000000"
       transform="translate(134,134)"
       id="path4-9"
       style="opacity:0.6" />
  </g>
</svg>
