<?xml version="1.0" encoding="UTF-8" standalone="no"?>
<svg
   width="24"
   height="24"
   version="1"
   id="svg4"
   sodipodi:docname="folder-meocloud.svg"
   inkscape:version="1.4.2 (ebf0e940d0, 2025-05-08)"
   xmlns:inkscape="http://www.inkscape.org/namespaces/inkscape"
   xmlns:sodipodi="http://sodipodi.sourceforge.net/DTD/sodipodi-0.dtd"
   xmlns="http://www.w3.org/2000/svg"
   xmlns:svg="http://www.w3.org/2000/svg">
  <sodipodi:namedview
     id="namedview4"
     pagecolor="#505050"
     bordercolor="#ffffff"
     borderopacity="1"
     inkscape:showpageshadow="0"
     inkscape:pageopacity="0"
     inkscape:pagecheckerboard="1"
     inkscape:deskcolor="#505050"
     inkscape:zoom="17.206265"
     inkscape:cx="12.059561"
     inkscape:cy="10.112596"
     inkscape:window-width="1176"
     inkscape:window-height="608"
     inkscape:window-x="0"
     inkscape:window-y="0"
     inkscape:window-maximized="1"
     inkscape:current-layer="svg4" />
  <defs
     id="defs1">
    <style
       id="current-color-scheme"
       type="text/css">
  .ColorScheme-Highlight{color:#00ff00;}
 </style>
  </defs>
  <rect
     style="display:inline;opacity:0.2"
     width="20"
     height="12"
     x="2"
     y="9.5"
     rx="1"
     ry="1"
     id="rect1" />
  <path
     style="display:inline;fill:currentColor"
     d="m 2,17 c 0,0.554 0.446,1 1,1 h 18 c 0.554,0 1,-0.446 1,-1 V 6 C 22,5.446 21.554,5 21,5 H 12 C 10.5,5 10,3 8.5,3 H 3 C 2.446,3 2,3.446 2,4"
     id="path5"
     class="ColorScheme-Highlight" />
  <path
     style="display:inline;fill:#000000;fill-opacity:1;opacity:0.25"
     d="m 2,17 c 0,0.554 0.446,1 1,1 h 18 c 0.554,0 1,-0.446 1,-1 V 6 C 22,5.446 21.554,5 21,5 H 12 C 10.5,5 10,3 8.5,3 H 3 C 2.446,3 2,3.446 2,4"
     id="path1" />
  <rect
     style="display:inline;opacity:0.2"
     width="20"
     height="12"
     x="2"
     y="8.5"
     rx="1"
     ry="1"
     id="rect2" />
  <rect
     style="fill:#e4e4e4"
     width="16"
     height="8"
     x="4"
     y="7"
     rx="1"
     ry="1"
     id="rect3" />
  <rect
     style="fill:currentColor"
     width="20"
     height="12"
     x="2"
     y="9"
     rx="1"
     ry="1"
     id="rect4"
     class="ColorScheme-Highlight" />
  <path
     style="display:inline;opacity:0.2;fill:#ffffff"
     d="M 3,3 C 2.446,3 2,3.446 2,4 v 0.5 c 0,-0.554 0.446,-1 1,-1 h 5.5 c 1.5,0 2,2 3.5,2 h 9 c 0.554,0 1,0.446 1,1 V 6 C 22,5.446 21.554,5 21,5 H 12 C 10.5,5 10,3 8.5,3 Z"
     id="path4" />
  <path
     style="fill:#000000;fill-opacity:1;opacity:0.6"
     d="m 12.8011,12 c -0.802,0 -1.537,0.509 -1.901,1.312 -0.159,-0.073 -0.328,-0.113 -0.5,-0.113 -0.6664,0 -1.2315,0.557 -1.32,1.301 C 8.4337,14.75 8.0011,15.431 8,16.199 8,17.193 8.716,18 9.5996,18 h 4.8005 c 0.884,0 1.6,-0.807 1.6,-1.801 -10e-4,-0.764 -0.429,-1.442 -1.07,-1.695 0.002,-0.034 0.002,-0.069 0.004,-0.104 0,-1.325 -0.955,-2.4 -2.133,-2.4 z m 0,1 c 0.569,0 1.132,0.555 1.133,1.398 V 14.4 c -0.001,0.015 -0.002,0.033 -0.002,0.041 a 1.0001,1.0001 0 0 0 0.63,0.993 c 0.213,0.083 0.437,0.377 0.438,0.765 0,0.514 -0.324,0.801 -0.6,0.801 H 9.5996 C 9.3244,17 9.001,16.713 9,16.201 v -0.002 c 0.0014,-0.392 0.2271,-0.685 0.4414,-0.767 a 1.0001,1.0001 0 0 0 0.6327,-0.815 c 0.037,-0.307 0.215,-0.418 0.326,-0.418 0.023,0 0.05,0.007 0.082,0.022 a 1.0001,1.0001 0 0 0 1.33,-0.496 C 12.0331,13.237 12.4211,13 12.8011,13 Z"
     id="path5-1" />
</svg>
