<?xml version="1.0" encoding="UTF-8" standalone="no"?>
<svg
   width="24"
   height="24"
   version="1"
   id="svg4"
   sodipodi:docname="folder-linux.svg"
   inkscape:version="1.4.2 (ebf0e940d0, 2025-05-08)"
   xmlns:inkscape="http://www.inkscape.org/namespaces/inkscape"
   xmlns:sodipodi="http://sodipodi.sourceforge.net/DTD/sodipodi-0.dtd"
   xmlns="http://www.w3.org/2000/svg"
   xmlns:svg="http://www.w3.org/2000/svg">
  <sodipodi:namedview
     id="namedview4"
     pagecolor="#505050"
     bordercolor="#ffffff"
     borderopacity="1"
     inkscape:showpageshadow="0"
     inkscape:pageopacity="0"
     inkscape:pagecheckerboard="1"
     inkscape:deskcolor="#505050"
     inkscape:zoom="8.6031325"
     inkscape:cx="12.844159"
     inkscape:cy="3.8358121"
     inkscape:window-width="1176"
     inkscape:window-height="608"
     inkscape:window-x="0"
     inkscape:window-y="0"
     inkscape:window-maximized="1"
     inkscape:current-layer="svg4" />
  <defs
     id="defs1">
    <style
       id="current-color-scheme"
       type="text/css">
  .ColorScheme-Highlight{color:#00ff00;}
 </style>
  </defs>
  <rect
     style="display:inline;opacity:0.2"
     width="20"
     height="12"
     x="2"
     y="9.5"
     rx="1"
     ry="1"
     id="rect1" />
  <path
     style="display:inline;fill:currentColor"
     d="m 2,17 c 0,0.554 0.446,1 1,1 h 18 c 0.554,0 1,-0.446 1,-1 V 6 C 22,5.446 21.554,5 21,5 H 12 C 10.5,5 10,3 8.5,3 H 3 C 2.446,3 2,3.446 2,4"
     id="path5"
     class="ColorScheme-Highlight" />
  <path
     style="display:inline;fill:#000000;fill-opacity:1;opacity:0.25"
     d="m 2,17 c 0,0.554 0.446,1 1,1 h 18 c 0.554,0 1,-0.446 1,-1 V 6 C 22,5.446 21.554,5 21,5 H 12 C 10.5,5 10,3 8.5,3 H 3 C 2.446,3 2,3.446 2,4"
     id="path1" />
  <rect
     style="display:inline;opacity:0.2"
     width="20"
     height="12"
     x="2"
     y="8.5"
     rx="1"
     ry="1"
     id="rect2" />
  <rect
     style="fill:#e4e4e4"
     width="16"
     height="8"
     x="4"
     y="7"
     rx="1"
     ry="1"
     id="rect3" />
  <rect
     style="fill:currentColor"
     width="20"
     height="12"
     x="2"
     y="9"
     rx="1"
     ry="1"
     id="rect4"
     class="ColorScheme-Highlight" />
  <path
     style="fill:#000000;fill-opacity:1;opacity:0.6"
     d="m 12.88,16.037093 c -0.56,0.26 -1.081,0.258 -1.431,0.232 -0.417,-0.03 -0.753,-0.144 -0.9,-0.244 -0.091,-0.061 -0.215,-0.038 -0.276,0.053 -0.062,0.091 -0.038,0.215 0.053,0.276 0.237,0.161 0.656,0.28 1.095,0.312 0.074,0.005 0.155,0.009 0.243,0.009 0.381,0 0.866,-0.037 1.384,-0.278 0.099,-0.046 0.142,-0.164 0.096,-0.264 -0.046,-0.099 -0.165,-0.142 -0.264,-0.096 z m 2.21,-0.295 c 0.019,-1.727 0.196,-4.991 -3.11,-4.727 -3.2645,0.263 -2.3989,3.711 -2.4476,4.866 -0.0431,0.611 -0.2459,1.358 -0.5324,2.118 h 0.8824 c 0.0907,-0.322 0.1576,-0.641 0.1866,-0.944 0.053,0.037 0.11,0.073 0.17,0.107 0.099,0.058 0.184,0.136 0.274,0.218 0.21,0.191 0.448,0.408 0.914,0.435 0.031,0.002 0.063,0.003 0.093,0.003 0.471,0 0.793,-0.206 1.052,-0.372 0.124,-0.079 0.231,-0.147 0.332,-0.18 0.287,-0.09 0.537,-0.235 0.724,-0.419 0.029,-0.029 0.056,-0.058 0.082,-0.089 0.104,0.382 0.247,0.812 0.405,1.241 h 1.884 c -0.452,-0.699 -0.919,-1.383 -0.909,-2.257 z m -5.2416,-0.939 c 0,0 0,0 -10e-5,-0.001 -0.0324,-0.563 0.2377,-1.037 0.6027,-1.059 0.365,-0.021 0.687,0.419 0.719,0.983 0,0 10e-4,0 10e-4,0 0.001,0.03 0.002,0.06 0.002,0.09 -0.116,0.029 -0.22,0.071 -0.313,0.121 -10e-4,-0.005 -10e-4,-0.009 -0.002,-0.013 v 0 c -0.031,-0.32 -0.202,-0.562 -0.381,-0.54 -0.18,0.022 -0.3,0.299 -0.269,0.619 0,0 0,0 0,0 0.014,0.14 0.054,0.265 0.11,0.359 -0.014,0.011 -0.054,0.04 -0.099,0.073 -0.034,0.025 -0.075,0.055 -0.125,0.092 -0.1359,-0.179 -0.229,-0.435 -0.2457,-0.724 z m 3.6986,1.393 c -0.013,0.298 -0.403,0.578 -0.762,0.69 l -0.003,0.001 c -0.149,0.049 -0.283,0.134 -0.424,0.225 -0.237,0.151 -0.483,0.309 -0.837,0.309 -0.024,0 -0.048,-10e-4 -0.071,-0.003 -0.325,-0.019 -0.477,-0.157 -0.669,-0.332 -0.102,-0.093 -0.206,-0.188 -0.342,-0.268 l -0.002,-0.001 c -0.292,-0.165 -0.4736,-0.37 -0.4852,-0.548 -0.0057,-0.089 0.0338,-0.166 0.1172,-0.229 0.182,-0.136 0.304,-0.225 0.385,-0.284 0.09,-0.066 0.117,-0.086 0.137,-0.105 0.014,-0.013 0.029,-0.028 0.046,-0.045 0.167,-0.162 0.447,-0.434 0.876,-0.434 0.263,0 0.553,0.101 0.862,0.3 0.146,0.095 0.273,0.139 0.434,0.194 0.11,0.038 0.235,0.081 0.403,0.153 l 0.003,10e-4 c 0.156,0.065 0.341,0.182 0.332,0.376 z m -0.086,-0.7 c -0.03,-0.015 -0.061,-0.029 -0.094,-0.043 -0.151,-0.065 -0.272,-0.108 -0.373,-0.143 0.056,-0.109 0.09,-0.245 0.093,-0.392 v 0 c 0.008,-0.358 -0.172,-0.648 -0.403,-0.649 -0.23,-10e-4 -0.423,0.289 -0.431,0.647 v 0 c 0,0.012 0,0.024 0,0.035 -0.142,-0.065 -0.282,-0.112 -0.418,-0.142 -0.001,-0.013 -0.002,-0.027 -0.002,-0.04 v 0 c -0.013,-0.653 0.387,-1.192 0.894,-1.206 0.507,-0.014 0.928,0.504 0.942,1.156 v 0 c 0.005,0.295 -0.073,0.567 -0.208,0.777 z"
     id="path5-5" />
  <path
     style="display:inline;opacity:0.2;fill:#ffffff"
     d="M 3,3 C 2.446,3 2,3.446 2,4 v 0.5 c 0,-0.554 0.446,-1 1,-1 h 5.5 c 1.5,0 2,2 3.5,2 h 9 c 0.554,0 1,0.446 1,1 V 6 C 22,5.446 21.554,5 21,5 H 12 C 10.5,5 10,3 8.5,3 Z"
     id="path4" />
</svg>
