<?xml version="1.0" encoding="UTF-8" standalone="no"?>
<svg
   width="24"
   height="24"
   version="1"
   id="svg4"
   sodipodi:docname="folder-docker.svg"
   inkscape:version="1.4.2 (ebf0e940d0, 2025-05-08)"
   xmlns:inkscape="http://www.inkscape.org/namespaces/inkscape"
   xmlns:sodipodi="http://sodipodi.sourceforge.net/DTD/sodipodi-0.dtd"
   xmlns="http://www.w3.org/2000/svg"
   xmlns:svg="http://www.w3.org/2000/svg">
  <sodipodi:namedview
     id="namedview4"
     pagecolor="#505050"
     bordercolor="#ffffff"
     borderopacity="1"
     inkscape:showpageshadow="0"
     inkscape:pageopacity="0"
     inkscape:pagecheckerboard="1"
     inkscape:deskcolor="#505050"
     inkscape:zoom="12.166667"
     inkscape:cx="7.438356"
     inkscape:cy="12"
     inkscape:window-width="1176"
     inkscape:window-height="608"
     inkscape:window-x="0"
     inkscape:window-y="0"
     inkscape:window-maximized="1"
     inkscape:current-layer="svg4" />
  <defs
     id="defs1">
    <style
       id="current-color-scheme"
       type="text/css">
  .ColorScheme-Highlight{color:#00ff00;}
 </style>
  </defs>
  <rect
     style="display:inline;opacity:0.2"
     width="20"
     height="12"
     x="2"
     y="9.5"
     rx="1"
     ry="1"
     id="rect1" />
  <path
     style="display:inline;fill:currentColor"
     d="m 2,17 c 0,0.554 0.446,1 1,1 h 18 c 0.554,0 1,-0.446 1,-1 V 6 C 22,5.446 21.554,5 21,5 H 12 C 10.5,5 10,3 8.5,3 H 3 C 2.446,3 2,3.446 2,4"
     id="path5"
     class="ColorScheme-Highlight" />
  <path
     style="display:inline;fill:#000000;fill-opacity:1;opacity:0.25"
     d="m 2,17 c 0,0.554 0.446,1 1,1 h 18 c 0.554,0 1,-0.446 1,-1 V 6 C 22,5.446 21.554,5 21,5 H 12 C 10.5,5 10,3 8.5,3 H 3 C 2.446,3 2,3.446 2,4"
     id="path1" />
  <rect
     style="display:inline;opacity:0.2"
     width="20"
     height="12"
     x="2"
     y="8.5"
     rx="1"
     ry="1"
     id="rect2" />
  <rect
     style="fill:#e4e4e4"
     width="16"
     height="8"
     x="4"
     y="7"
     rx="1"
     ry="1"
     id="rect3" />
  <rect
     style="fill:currentColor"
     width="20"
     height="12"
     x="2"
     y="9"
     rx="1"
     ry="1"
     id="rect4"
     class="ColorScheme-Highlight" />
  <path
     style="display:inline;opacity:0.2;fill:#ffffff"
     d="M 3,3 C 2.446,3 2,3.446 2,4 v 0.5 c 0,-0.554 0.446,-1 1,-1 h 5.5 c 1.5,0 2,2 3.5,2 h 9 c 0.554,0 1,0.446 1,1 V 6 C 22,5.446 21.554,5 21,5 H 12 C 10.5,5 10,3 8.5,3 Z"
     id="path4" />
  <g
     id="g9">
    <path
       style="fill:#000000;fill-opacity:1;opacity:0.6"
       d="m 14.939,12 c -0.394,0.467 -0.544,1.014 -0.554,1.604 -0.04,0.397 0.153,0.733 0.281,1.089 L 13.775,15 H 6.5 C 6.014,15 6,16 6,16 c 0,1.496 1.6238,3 3.418,3 h 1.045 C 12.96,19.02 15,18 15.842,15.498 17,15.493 17.685,14.969 18,14.062 17.431,13.592 16.82,13.576 16.145,13.678 16.025,12.876 15.565,12.325 14.939,12 Z"
       id="path4-0" />
    <rect
       style="fill:#000000;fill-opacity:1;opacity:0.6"
       width="1"
       height="1"
       x="12"
       y="13"
       rx="0.25"
       ry="0.25"
       id="rect5" />
    <rect
       style="fill:#000000;fill-opacity:1;opacity:0.6"
       width="1"
       height="1"
       x="10"
       y="13"
       rx="0.25"
       ry="0.25"
       id="rect6" />
    <rect
       style="fill:#000000;fill-opacity:1;opacity:0.6"
       width="1"
       height="1"
       x="8"
       y="13"
       rx="0.25"
       ry="0.25"
       id="rect7" />
    <rect
       style="fill:#000000;fill-opacity:1;opacity:0.6"
       width="1"
       height="1"
       x="10"
       y="11"
       rx="0.25"
       ry="0.25"
       id="rect8" />
    <rect
       style="fill:#000000;fill-opacity:1;opacity:0.6"
       width="1"
       height="1"
       x="12"
       y="11"
       rx="0.25"
       ry="0.25"
       id="rect9" />
  </g>
</svg>
