<?xml version="1.0" encoding="UTF-8" standalone="no"?>
<svg
   width="24"
   height="24"
   version="1"
   id="svg4"
   sodipodi:docname="folder-language.svg"
   inkscape:version="1.4.2 (ebf0e940d0, 2025-05-08)"
   xmlns:inkscape="http://www.inkscape.org/namespaces/inkscape"
   xmlns:sodipodi="http://sodipodi.sourceforge.net/DTD/sodipodi-0.dtd"
   xmlns="http://www.w3.org/2000/svg"
   xmlns:svg="http://www.w3.org/2000/svg">
  <sodipodi:namedview
     id="namedview4"
     pagecolor="#505050"
     bordercolor="#ffffff"
     borderopacity="1"
     inkscape:showpageshadow="0"
     inkscape:pageopacity="0"
     inkscape:pagecheckerboard="1"
     inkscape:deskcolor="#505050"
     inkscape:zoom="17.206265"
     inkscape:cx="12.262975"
     inkscape:cy="14.58771"
     inkscape:window-width="1176"
     inkscape:window-height="608"
     inkscape:window-x="0"
     inkscape:window-y="0"
     inkscape:window-maximized="1"
     inkscape:current-layer="svg4" />
  <defs
     id="defs1">
    <style
       id="current-color-scheme"
       type="text/css">
  .ColorScheme-Highlight{color:#00ff00;}
 </style>
  </defs>
  <rect
     style="display:inline;opacity:0.2"
     width="20"
     height="12"
     x="2"
     y="9.5"
     rx="1"
     ry="1"
     id="rect1" />
  <path
     style="display:inline;fill:currentColor"
     d="m 2,17 c 0,0.554 0.446,1 1,1 h 18 c 0.554,0 1,-0.446 1,-1 V 6 C 22,5.446 21.554,5 21,5 H 12 C 10.5,5 10,3 8.5,3 H 3 C 2.446,3 2,3.446 2,4"
     id="path5"
     class="ColorScheme-Highlight" />
  <path
     style="display:inline;fill:#000000;fill-opacity:1;opacity:0.25"
     d="m 2,17 c 0,0.554 0.446,1 1,1 h 18 c 0.554,0 1,-0.446 1,-1 V 6 C 22,5.446 21.554,5 21,5 H 12 C 10.5,5 10,3 8.5,3 H 3 C 2.446,3 2,3.446 2,4"
     id="path1" />
  <rect
     style="display:inline;opacity:0.2"
     width="20"
     height="12"
     x="2"
     y="8.5"
     rx="1"
     ry="1"
     id="rect2" />
  <rect
     style="fill:#e4e4e4"
     width="16"
     height="8"
     x="4"
     y="7"
     rx="1"
     ry="1"
     id="rect3" />
  <rect
     style="fill:currentColor"
     width="20"
     height="12"
     x="2"
     y="9"
     rx="1"
     ry="1"
     id="rect4"
     class="ColorScheme-Highlight" />
  <path
     style="display:inline;opacity:0.2;fill:#ffffff"
     d="M 3,3 C 2.446,3 2,3.446 2,4 v 0.5 c 0,-0.554 0.446,-1 1,-1 h 5.5 c 1.5,0 2,2 3.5,2 h 9 c 0.554,0 1,0.446 1,1 V 6 C 22,5.446 21.554,5 21,5 H 12 C 10.5,5 10,3 8.5,3 Z"
     id="path4" />
  <g
     id="kanji"
     transform="matrix(0.19007342,0,0,0.19007342,8.0000186,10.654959)">
		<path
   style="fill:#030104;opacity:0.6"
   d="M 19.07,14.703 C 18.549,11.785 12.746,15.093 11.171,13.997 9.963,13.156 12.582,9.512 13.01,8.676 13.229,8.25 17.321,8.238 17.915,8.127 19.134,7.9 21.063,7.387 20.922,5.785 20.703,3.259 17.466,3.862 15.821,4.291 12.766,5.088 9.707,5.765 6.534,5.497 5.337,5.396 1.603,5.075 2.57,7.421 c 0.695,1.686 5.849,0.168 5.16,2.146 -0.856,2.459 -1.74,4.695 -3.134,6.916 -1.148,1.83 -2.415,3.581 -3.61,5.378 -0.501,0.756 -1.856,2.586 -0.154,2.888 1.388,0.245 2.557,-1.132 3.449,-1.981 1.555,1.025 2.583,2.495 3.963,3.889 0.121,0.123 -4.261,5.889 -4.703,6.465 -0.685,0.896 -2.88,2.949 -2.01,4.222 1.763,2.576 8.327,-6.489 9.083,-7.511 1.364,-1.842 2.797,-3.774 3.543,-5.897 0.646,-1.839 1.581,-3.592 2.743,-5.157 0.827,-1.114 2.446,-2.531 2.17,-4.076 z m -8.216,7.266 C 9.613,20.827 8.492,19.797 7.277,18.68 c 0.343,-0.766 0.705,-1.577 1.07,-2.393 1.45,0.081 2.815,0.157 4.335,0.241 -0.565,1.924 -0.649,3.785 -1.828,5.441 z"
   id="path1-3" />

		<path
   style="fill:#030104;opacity:0.6"
   d="m 38.331,25.487 c -1.85,-0.75 -3.601,-1.362 -5.633,-1.095 -2.634,0.349 -5.213,1.455 -7.908,1.087 -1.711,-0.234 -4.457,-2.064 -6.063,-0.76 -1.098,0.893 -0.124,2.953 0.011,4.089 0.255,2.14 0.348,4.291 0.812,6.404 0.261,1.188 1.536,6.694 3.75,4.584 0.942,-0.899 0.621,-2.358 1.938,-2.963 1.24,-0.57 2.798,-0.187 4.11,-0.275 0.939,-0.063 1.882,-0.108 2.822,-0.122 0.596,-0.008 1.19,-0.004 1.785,0.018 1.348,0.049 2.721,0.26 4.039,-0.144 2.85,-0.874 -1.916,-3.038 0.264,-4.229 1.336,-0.73 3.801,-2.601 3.548,-4.36 -0.189,-1.315 -2.473,-1.827 -3.475,-2.234 z m -5.403,6.69 c -1.565,0.063 -2.867,0.002 -4.413,0.478 -1.201,0.369 -2.853,1.385 -4.15,0.938 -1.653,-0.568 -1.458,-3.219 -1.641,-4.579 2.532,0.354 4.462,-0.599 6.452,-1.215 1.396,-0.433 2.783,-0.718 4.291,-0.562 0.174,1.107 1.485,4.858 -0.539,4.94 z"
   id="path2" />

		<path
   style="fill:#030104;opacity:0.6"
   d="m 20.262,23.149 c 2.191,-0.019 3.953,-1.625 5.943,-2.331 2.025,-0.718 4.146,-1.136 6.221,-1.687 1.647,-0.438 3.139,-0.603 4.529,0.58 1.006,0.856 2.135,2.388 3.654,1.896 1.355,-0.438 1.771,-2.091 1.283,-3.3 -0.622,-1.546 -2.201,-2.445 -3.536,-3.297 -1.57,-1.002 -2.88,-2.413 -4.456,-3.382 -1.235,-0.761 -1.612,0.143 -1.479,1.403 0.158,1.498 1.093,3.275 -0.713,3.928 -2.387,0.862 -4.879,1.148 -7.384,1.35 -0.366,0.03 -0.747,-0.109 -1.28,-0.195 -0.715,-0.116 2.713,-5.241 3,-5.598 1.271,-1.575 2.905,-2.791 4.209,-4.329 1.119,-1.318 1.633,-3.243 0.639,-4.752 -1.159,-1.758 -3.176,-1.617 -5.038,-1.617 0.12,0 -0.19,3.717 -0.24,4.015 -0.237,1.423 -0.665,2.821 -1.301,4.118 -1.729,3.531 -5.487,6.426 -6.253,10.384 -0.32,1.652 0.461,2.829 2.202,2.814 z"
   id="path3" />

	</g>
</svg>
