<?xml version="1.0" encoding="UTF-8" standalone="no"?>
<svg
   width="24"
   height="24"
   version="1"
   id="svg4"
   sodipodi:docname="folder-appimage.svg"
   inkscape:version="1.4.2 (ebf0e940d0, 2025-05-08)"
   xmlns:inkscape="http://www.inkscape.org/namespaces/inkscape"
   xmlns:sodipodi="http://sodipodi.sourceforge.net/DTD/sodipodi-0.dtd"
   xmlns="http://www.w3.org/2000/svg"
   xmlns:svg="http://www.w3.org/2000/svg">
  <sodipodi:namedview
     id="namedview4"
     pagecolor="#505050"
     bordercolor="#ffffff"
     borderopacity="1"
     inkscape:showpageshadow="0"
     inkscape:pageopacity="0"
     inkscape:pagecheckerboard="1"
     inkscape:deskcolor="#505050"
     inkscape:zoom="12.166667"
     inkscape:cx="11.630137"
     inkscape:cy="11.342465"
     inkscape:window-width="1176"
     inkscape:window-height="608"
     inkscape:window-x="0"
     inkscape:window-y="0"
     inkscape:window-maximized="1"
     inkscape:current-layer="svg4" />
  <defs
     id="defs1">
    <style
       id="current-color-scheme"
       type="text/css">
  .ColorScheme-Highlight{color:#00ff00;}
 </style>
  </defs>
  <rect
     style="display:inline;opacity:0.2"
     width="20"
     height="12"
     x="2"
     y="9.5"
     rx="1"
     ry="1"
     id="rect1" />
  <path
     style="display:inline;fill:currentColor"
     d="m 2,17 c 0,0.554 0.446,1 1,1 h 18 c 0.554,0 1,-0.446 1,-1 V 6 C 22,5.446 21.554,5 21,5 H 12 C 10.5,5 10,3 8.5,3 H 3 C 2.446,3 2,3.446 2,4"
     id="path5"
     class="ColorScheme-Highlight" />
  <path
     style="display:inline;fill:#000000;fill-opacity:1;opacity:0.25"
     d="m 2,17 c 0,0.554 0.446,1 1,1 h 18 c 0.554,0 1,-0.446 1,-1 V 6 C 22,5.446 21.554,5 21,5 H 12 C 10.5,5 10,3 8.5,3 H 3 C 2.446,3 2,3.446 2,4"
     id="path1" />
  <rect
     style="display:inline;opacity:0.2"
     width="20"
     height="12"
     x="2"
     y="8.5"
     rx="1"
     ry="1"
     id="rect2" />
  <rect
     style="fill:#e4e4e4"
     width="16"
     height="8"
     x="4"
     y="7"
     rx="1"
     ry="1"
     id="rect3" />
  <rect
     style="fill:currentColor"
     width="20"
     height="12"
     x="2"
     y="9"
     rx="1"
     ry="1"
     id="rect4"
     class="ColorScheme-Highlight" />
  <path
     style="display:inline;opacity:0.2;fill:#ffffff"
     d="M 3,3 C 2.446,3 2,3.446 2,4 v 0.5 c 0,-0.554 0.446,-1 1,-1 h 5.5 c 1.5,0 2,2 3.5,2 h 9 c 0.554,0 1,0.446 1,1 V 6 C 22,5.446 21.554,5 21,5 H 12 C 10.5,5 10,3 8.5,3 Z"
     id="path4" />
  <path
     style="display:inline;fill:#000000;fill-opacity:1;stroke-width:0.455721;opacity:0.6"
     d="m 11.053504,10.000236 c -0.09807,0.0104 -0.184378,0.08842 -0.202377,0.182788 l -0.194993,0.96326 c -0.350063,0.133289 -0.679127,0.316392 -0.968039,0.54139 L 8.7273009,11.371282 c -0.099827,-0.0335 -0.2208838,0.0099 -0.2745125,0.09841 l -0.9247027,1.560989 c -0.052083,0.08977 -0.029745,0.213973 0.050583,0.281247 l 0.7657551,0.653844 c -0.026967,0.175327 -0.043344,0.351716 -0.043344,0.534369 0,0.18264 0.01639,0.359029 0.043344,0.53437 l -0.7657551,0.653843 c -0.080328,0.06727 -0.1026653,0.191473 -0.050583,0.281247 L 8.4527884,17.5305 c 0.053629,0.08852 0.1746995,0.131934 0.2745125,0.09843 L 9.688095,17.312538 c 0.288773,0.224989 0.617884,0.408101 0.968039,0.54139 l 0.195053,0.96326 c 0.01977,0.10083 0.118486,0.181411 0.223948,0.182806 h 1.849406 c 0.105457,-0.0014 0.204177,-0.08198 0.223948,-0.182806 l 0.195053,-0.96326 c 0.350156,-0.13328 0.679266,-0.316415 0.96804,-0.54139 l 0.960793,0.316392 c 0.09982,0.0335 0.220889,-0.0099 0.274513,-0.09843 l 0.924703,-1.560899 c 0.05209,-0.08977 0.02974,-0.214018 -0.05057,-0.281247 l -0.765432,-0.653843 c 0.02697,-0.175328 0.04335,-0.351717 0.04335,-0.53437 0,-0.18264 -0.01639,-0.359029 -0.04335,-0.534369 l 0.765755,-0.653889 c 0.08031,-0.06723 0.102651,-0.191464 0.05057,-0.281247 l -0.924657,-1.560989 c -0.05354,-0.08851 -0.174686,-0.131916 -0.274374,-0.09841 l -0.960794,0.316392 c -0.288912,-0.224998 -0.617976,-0.408123 -0.96804,-0.54139 l -0.194992,-0.96326 c -0.01985,-0.100821 -0.118611,-0.181415 -0.224068,-0.18281 h -1.849406 c -0.0072,-2.252e-4 -0.01445,-2.252e-4 -0.02166,0 z"
     id="path1-6" />
  <path
     style="fill:currentColor;stroke-width:0.450011"
     d="m 11.420557,12 c -0.142461,0 -0.295529,0.109476 -0.295529,0.245461 v 2.454484 H 10 L 12.02505,16.95 14.050101,14.699945 H 12.925073 V 12.245461 C 12.925073,12.109476 12.772005,12 12.629544,12 Z"
     id="path5-5"
     class="ColorScheme-Highlight" />
</svg>
