<?xml version="1.0" encoding="UTF-8" standalone="no"?>
<svg
   width="24"
   height="24"
   version="1"
   id="svg4"
   sodipodi:docname="folder-obsidian.svg"
   inkscape:version="1.4.2 (ebf0e940d0, 2025-05-08)"
   xmlns:inkscape="http://www.inkscape.org/namespaces/inkscape"
   xmlns:sodipodi="http://sodipodi.sourceforge.net/DTD/sodipodi-0.dtd"
   xmlns="http://www.w3.org/2000/svg"
   xmlns:svg="http://www.w3.org/2000/svg">
  <sodipodi:namedview
     id="namedview4"
     pagecolor="#505050"
     bordercolor="#ffffff"
     borderopacity="1"
     inkscape:showpageshadow="0"
     inkscape:pageopacity="0"
     inkscape:pagecheckerboard="1"
     inkscape:deskcolor="#505050"
     inkscape:zoom="12.166667"
     inkscape:cx="11.794521"
     inkscape:cy="20.958904"
     inkscape:window-width="1176"
     inkscape:window-height="608"
     inkscape:window-x="0"
     inkscape:window-y="0"
     inkscape:window-maximized="1"
     inkscape:current-layer="svg4" />
  <defs
     id="defs1">
    <style
       id="current-color-scheme"
       type="text/css">
  .ColorScheme-Highlight{color:#00ff00;}
 </style>
  </defs>
  <rect
     style="display:inline;opacity:0.2"
     width="20"
     height="12"
     x="2"
     y="9.5"
     rx="1"
     ry="1"
     id="rect1" />
  <path
     style="display:inline;fill:currentColor"
     d="m 2,17 c 0,0.554 0.446,1 1,1 h 18 c 0.554,0 1,-0.446 1,-1 V 6 C 22,5.446 21.554,5 21,5 H 12 C 10.5,5 10,3 8.5,3 H 3 C 2.446,3 2,3.446 2,4"
     id="path5"
     class="ColorScheme-Highlight" />
  <path
     style="display:inline;fill:#000000;fill-opacity:1;opacity:0.25"
     d="m 2,17 c 0,0.554 0.446,1 1,1 h 18 c 0.554,0 1,-0.446 1,-1 V 6 C 22,5.446 21.554,5 21,5 H 12 C 10.5,5 10,3 8.5,3 H 3 C 2.446,3 2,3.446 2,4"
     id="path1" />
  <rect
     style="display:inline;opacity:0.2"
     width="20"
     height="12"
     x="2"
     y="8.5"
     rx="1"
     ry="1"
     id="rect2" />
  <rect
     style="fill:#e4e4e4"
     width="16"
     height="8"
     x="4"
     y="7"
     rx="1"
     ry="1"
     id="rect3" />
  <rect
     style="fill:currentColor"
     width="20"
     height="12"
     x="2"
     y="9"
     rx="1"
     ry="1"
     id="rect4"
     class="ColorScheme-Highlight" />
  <path
     style="display:inline;opacity:0.2;fill:#ffffff"
     d="M 3,3 C 2.446,3 2,3.446 2,4 v 0.5 c 0,-0.554 0.446,-1 1,-1 h 5.5 c 1.5,0 2,2 3.5,2 h 9 c 0.554,0 1,0.446 1,1 V 6 C 22,5.446 21.554,5 21,5 H 12 C 10.5,5 10,3 8.5,3 Z"
     id="path4" />
  <path
     style="fill:#000000;fill-opacity:1;opacity:0.6"
     d="m 12.586168,10 c -0.185,0 -0.364,0.051 -0.51,0.182 l -2.328,1.908 c -0.1219,0.109 -0.2011,0.258 -0.2246,0.42 l -0.1933,1.277 0.1894,0.112 c 0.5245,0.34 1.2995,0.918 1.6955,1.886 0.041,0.101 0.079,0.206 0.113,0.311 0.328,-0.084 0.665,-0.072 0.998,-0.096 -0.261,-0.825 -0.346,-1.539 -0.322,-2.101 0.03,-0.696 0.234,-1.236 0.449,-1.662 l 0.156,-0.309 c 0.146,-0.289 0.267,-0.524 0.325,-0.75 0.066,-0.257 0.078,-0.426 -0.036,-0.799 l -0.089,-0.334 c -0.072,-0.029 -0.147,-0.045 -0.223,-0.045 z m 1.355,1.239 c -0.01,0.063 -0.023,0.126 -0.039,0.187 -0.094,0.37 -0.256,0.674 -0.404,0.959 l -0.144,0.287 c -0.184,0.373 -0.329,0.744 -0.352,1.27 -0.022,0.514 0.079,1.291 0.445,2.23 0.361,0.114 1.435,0.552 2.205,1.9 0.263,-0.413 0.673,-1.058 0.789,-1.255 0.074,-0.125 0.062,-0.282 -0.025,-0.397 -0.228,-0.301 -0.661,-0.913 -0.9,-1.48 -0.241,-0.583 -0.28,-1.487 -0.282,-1.928 -0.001,-0.168 -0.053,-0.331 -0.158,-0.463 z m -1.748,5.771 c -0.229,0.007 -0.467,0.037 -0.707,0.078 0.001,0.114 -0.004,0.23 -0.017,0.35 -0.063,0.588 -0.279,1.243 -0.676,2.072 0.225,0.004 0.551,0.011 0.947,0.039 0.602,0.043 1.503,0.273 2.11,0.433 0.404,0.108 0.933,-0.292 1.154,-0.726 l 0.06,-0.119 -0.117,-0.254 c -0.478,-1.028 -1.155,-1.519 -1.738,-1.736 -0.292,-0.109 -0.642,-0.149 -1.016,-0.137 z m -3.1813,-2.248 c -0.347,0.642 -0.959,1.758 -0.959,1.758 -0.1406,0.252 -0.0643,0.572 0.1368,0.779 l 1.6972,1.789 c 0.3703,-0.771 0.5423,-1.329 0.5883,-1.756 0.048,-0.45 -0.024,-0.771 -0.186,-1.166 -0.254,-0.63 -0.7583,-1.007 -1.2773,-1.404 z"
     id="path4-5" />
</svg>
