<?xml version="1.0" encoding="UTF-8" standalone="no"?>
<svg
   width="24"
   height="24"
   version="1"
   id="svg4"
   sodipodi:docname="folder-yandex-disk.svg"
   inkscape:version="1.4.2 (ebf0e940d0, 2025-05-08)"
   xmlns:inkscape="http://www.inkscape.org/namespaces/inkscape"
   xmlns:sodipodi="http://sodipodi.sourceforge.net/DTD/sodipodi-0.dtd"
   xmlns="http://www.w3.org/2000/svg"
   xmlns:svg="http://www.w3.org/2000/svg">
  <sodipodi:namedview
     id="namedview4"
     pagecolor="#505050"
     bordercolor="#ffffff"
     borderopacity="1"
     inkscape:showpageshadow="0"
     inkscape:pageopacity="0"
     inkscape:pagecheckerboard="1"
     inkscape:deskcolor="#505050"
     inkscape:zoom="12.166667"
     inkscape:cx="11.712329"
     inkscape:cy="11.260274"
     inkscape:window-width="1176"
     inkscape:window-height="608"
     inkscape:window-x="0"
     inkscape:window-y="0"
     inkscape:window-maximized="1"
     inkscape:current-layer="svg4" />
  <defs
     id="defs1">
    <style
       id="current-color-scheme"
       type="text/css">
  .ColorScheme-Highlight{color:#00ff00;}
 </style>
  </defs>
  <rect
     style="display:inline;opacity:0.2"
     width="20"
     height="12"
     x="2"
     y="9.5"
     rx="1"
     ry="1"
     id="rect1" />
  <path
     style="display:inline;fill:currentColor"
     d="m 2,17 c 0,0.554 0.446,1 1,1 h 18 c 0.554,0 1,-0.446 1,-1 V 6 C 22,5.446 21.554,5 21,5 H 12 C 10.5,5 10,3 8.5,3 H 3 C 2.446,3 2,3.446 2,4"
     id="path5"
     class="ColorScheme-Highlight" />
  <path
     style="display:inline;fill:#000000;fill-opacity:1;opacity:0.25"
     d="m 2,17 c 0,0.554 0.446,1 1,1 h 18 c 0.554,0 1,-0.446 1,-1 V 6 C 22,5.446 21.554,5 21,5 H 12 C 10.5,5 10,3 8.5,3 H 3 C 2.446,3 2,3.446 2,4"
     id="path1" />
  <rect
     style="display:inline;opacity:0.2"
     width="20"
     height="12"
     x="2"
     y="8.5"
     rx="1"
     ry="1"
     id="rect2" />
  <rect
     style="fill:#e4e4e4"
     width="16"
     height="8"
     x="4"
     y="7"
     rx="1"
     ry="1"
     id="rect3" />
  <rect
     style="fill:currentColor"
     width="20"
     height="12"
     x="2"
     y="9"
     rx="1"
     ry="1"
     id="rect4"
     class="ColorScheme-Highlight" />
  <path
     style="display:inline;opacity:0.2;fill:#ffffff"
     d="M 3,3 C 2.446,3 2,3.446 2,4 v 0.5 c 0,-0.554 0.446,-1 1,-1 h 5.5 c 1.5,0 2,2 3.5,2 h 9 c 0.554,0 1,0.446 1,1 V 6 C 22,5.446 21.554,5 21,5 H 12 C 10.5,5 10,3 8.5,3 Z"
     id="path4" />
  <path
     style="fill:#000000;fill-opacity:1;opacity:0.6"
     d="m 11.546004,12.023 c -1.7777997,0 -1.364,1.624 -2.2744997,2.113 -0.0313,0.018 -0.049,0.035 -0.0771,0.052 0.6003,-0.357 1.3405997,-0.656 2.1255997,-0.858 0.666,-0.171 1.341,-0.267 1.963,-0.28 0.016,0 0.032,0 0.048,0 -0.6,-0.17 -0.666,-1.027 -1.785,-1.027 z m 1.938,1.478 c -0.623,0.012 -1.298,0.108 -1.963,0.279 -2.1936997,0.564 -3.7567997,1.792 -3.4916997,2.741 0.1528,0.543 0.8888,0.901 1.9856997,0.966 -10e-4,-0.004 -0.002,-0.007 -0.002,-0.012 -0.0595,-0.513 0.266,-0.96 0.648,-1.262 0.382,-0.303 0.873,-0.523 1.425,-0.64 0.552,-0.117 1.068,-0.111 1.5,0.019 0.406,0.122 0.788,0.388 0.882,0.846 1.099,-0.616 1.669,-1.359 1.504,-1.96 -0.175,-0.629 -1.129,-1.004 -2.488,-0.977 z m -0.653,2.499 a 0.92931,1.7885 76.001 0 0 -0.688,0.071 0.92931,1.7885 76.001 0 0 -1.64,1.3 0.92931,1.7885 76.001 0 0 1.855,0.558 0.92931,1.7885 76.001 0 0 1.638,-1.3 0.92931,1.7885 76.001 0 0 -1.165,-0.629 z"
     id="path5-0" />
</svg>
