<?xml version="1.0" encoding="UTF-8" standalone="no"?>
<svg
   width="24"
   height="24"
   version="1"
   id="svg4"
   sodipodi:docname="folder-paint.svg"
   inkscape:version="1.4.2 (ebf0e940d0, 2025-05-08)"
   xmlns:inkscape="http://www.inkscape.org/namespaces/inkscape"
   xmlns:sodipodi="http://sodipodi.sourceforge.net/DTD/sodipodi-0.dtd"
   xmlns="http://www.w3.org/2000/svg"
   xmlns:svg="http://www.w3.org/2000/svg">
  <sodipodi:namedview
     id="namedview4"
     pagecolor="#505050"
     bordercolor="#ffffff"
     borderopacity="1"
     inkscape:showpageshadow="0"
     inkscape:pageopacity="0"
     inkscape:pagecheckerboard="1"
     inkscape:deskcolor="#505050"
     inkscape:zoom="17.206265"
     inkscape:cx="12.262975"
     inkscape:cy="14.58771"
     inkscape:window-width="1176"
     inkscape:window-height="608"
     inkscape:window-x="0"
     inkscape:window-y="0"
     inkscape:window-maximized="1"
     inkscape:current-layer="svg4" />
  <defs
     id="defs1">
    <style
       id="current-color-scheme"
       type="text/css">
  .ColorScheme-Highlight{color:#00ff00;}
 </style>
  </defs>
  <rect
     style="display:inline;opacity:0.2"
     width="20"
     height="12"
     x="2"
     y="9.5"
     rx="1"
     ry="1"
     id="rect1" />
  <path
     style="display:inline;fill:currentColor"
     d="m 2,17 c 0,0.554 0.446,1 1,1 h 18 c 0.554,0 1,-0.446 1,-1 V 6 C 22,5.446 21.554,5 21,5 H 12 C 10.5,5 10,3 8.5,3 H 3 C 2.446,3 2,3.446 2,4"
     id="path5"
     class="ColorScheme-Highlight" />
  <path
     style="display:inline;fill:#000000;fill-opacity:1;opacity:0.25"
     d="m 2,17 c 0,0.554 0.446,1 1,1 h 18 c 0.554,0 1,-0.446 1,-1 V 6 C 22,5.446 21.554,5 21,5 H 12 C 10.5,5 10,3 8.5,3 H 3 C 2.446,3 2,3.446 2,4"
     id="path1" />
  <rect
     style="display:inline;opacity:0.2"
     width="20"
     height="12"
     x="2"
     y="8.5"
     rx="1"
     ry="1"
     id="rect2" />
  <rect
     style="fill:#e4e4e4"
     width="16"
     height="8"
     x="4"
     y="7"
     rx="1"
     ry="1"
     id="rect3" />
  <rect
     style="fill:currentColor"
     width="20"
     height="12"
     x="2"
     y="9"
     rx="1"
     ry="1"
     id="rect4"
     class="ColorScheme-Highlight" />
  <path
     style="display:inline;opacity:0.2;fill:#ffffff"
     d="M 3,3 C 2.446,3 2,3.446 2,4 v 0.5 c 0,-0.554 0.446,-1 1,-1 h 5.5 c 1.5,0 2,2 3.5,2 h 9 c 0.554,0 1,0.446 1,1 V 6 C 22,5.446 21.554,5 21,5 H 12 C 10.5,5 10,3 8.5,3 Z"
     id="path4" />
  <g
     id="brush"
     transform="matrix(0.01798191,0,0,0.01798191,8.0000045,10.999996)">
	<path
   id="brush_bristles"
   d="m 440.498,173.103 c 5.858,-5.857 5.858,-15.355 0,-21.213 l -22.511,-22.511 c -5.091,-5.091 -13.084,-5.846 -19.038,-1.8 l -47.332,32.17 31.975,-47.652 c 3.993,-5.951 3.219,-13.897 -1.85,-18.964 l -48.83,-48.83 c -4.508,-4.508 -11.372,-5.675 -17.114,-2.908 l -8.443,4.065 4.043,-8.97 c 2.563,-5.685 1.341,-12.361 -3.068,-16.771 L 293.002,4.393 c -5.857,-5.857 -15.355,-5.857 -21.213,0 l -119.06,119.059 168.71,168.71 z"
   style="fill:#000000;fill-opacity:1;opacity:0.6" />

	<path
   id="brush_handle"
   d="m 130.56,145.622 -34.466,34.466 c -2.813,2.813 -4.394,6.628 -4.394,10.606 0,3.978 1.58,7.794 4.394,10.606 l 32.694,32.694 c 6.299,6.299 9.354,14.992 8.382,23.849 -0.971,8.851 -5.843,16.677 -13.366,21.473 -96.068,61.238 -105.023,70.194 -107.965,73.137 -21.119,21.118 -21.119,55.48 0,76.6 21.14,21.14 55.504,21.098 76.6,0 2.944,-2.943 11.902,-11.902 73.136,-107.965 4.784,-7.505 12.607,-12.366 21.462,-13.339 8.883,-0.969 17.575,2.071 23.859,8.354 l 32.694,32.694 c 5.857,5.857 15.356,5.857 21.213,0 L 299.27,314.33 Z M 70.05,404.825 c -8.28,8.28 -21.704,8.28 -29.983,0 -8.28,-8.28 -8.28,-21.704 0,-29.983 8.28,-8.28 21.704,-8.28 29.983,0 8.28,8.279 8.28,21.703 0,29.983 z"
   style="fill:#000000;fill-opacity:1;opacity:0.6" />

</g>
</svg>
