<?xml version="1.0" encoding="UTF-8" standalone="no"?>
<svg
   width="24"
   height="24"
   version="1"
   id="svg4"
   sodipodi:docname="folder-network.svg"
   inkscape:version="1.4.2 (ebf0e940d0, 2025-05-08)"
   xmlns:inkscape="http://www.inkscape.org/namespaces/inkscape"
   xmlns:sodipodi="http://sodipodi.sourceforge.net/DTD/sodipodi-0.dtd"
   xmlns="http://www.w3.org/2000/svg"
   xmlns:svg="http://www.w3.org/2000/svg">
  <sodipodi:namedview
     id="namedview4"
     pagecolor="#505050"
     bordercolor="#ffffff"
     borderopacity="1"
     inkscape:showpageshadow="0"
     inkscape:pageopacity="0"
     inkscape:pagecheckerboard="1"
     inkscape:deskcolor="#505050"
     inkscape:zoom="17.206265"
     inkscape:cx="12.059561"
     inkscape:cy="10.112596"
     inkscape:window-width="1176"
     inkscape:window-height="608"
     inkscape:window-x="0"
     inkscape:window-y="0"
     inkscape:window-maximized="1"
     inkscape:current-layer="svg4" />
  <defs
     id="defs1">
    <style
       id="current-color-scheme"
       type="text/css">
  .ColorScheme-Highlight{color:#00ff00;}
 </style>
  </defs>
  <rect
     style="display:inline;opacity:0.2"
     width="20"
     height="12"
     x="2"
     y="9.5"
     rx="1"
     ry="1"
     id="rect1" />
  <path
     style="display:inline;fill:currentColor"
     d="m 2,17 c 0,0.554 0.446,1 1,1 h 18 c 0.554,0 1,-0.446 1,-1 V 6 C 22,5.446 21.554,5 21,5 H 12 C 10.5,5 10,3 8.5,3 H 3 C 2.446,3 2,3.446 2,4"
     id="path5"
     class="ColorScheme-Highlight" />
  <path
     style="display:inline;fill:#000000;fill-opacity:1;opacity:0.25"
     d="m 2,17 c 0,0.554 0.446,1 1,1 h 18 c 0.554,0 1,-0.446 1,-1 V 6 C 22,5.446 21.554,5 21,5 H 12 C 10.5,5 10,3 8.5,3 H 3 C 2.446,3 2,3.446 2,4"
     id="path1" />
  <rect
     style="display:inline;opacity:0.2"
     width="20"
     height="12"
     x="2"
     y="8.5"
     rx="1"
     ry="1"
     id="rect2" />
  <rect
     style="fill:#e4e4e4"
     width="16"
     height="8"
     x="4"
     y="7"
     rx="1"
     ry="1"
     id="rect3" />
  <rect
     style="fill:currentColor"
     width="20"
     height="12"
     x="2"
     y="9"
     rx="1"
     ry="1"
     id="rect4"
     class="ColorScheme-Highlight" />
  <path
     style="display:inline;opacity:0.2;fill:#ffffff"
     d="M 3,3 C 2.446,3 2,3.446 2,4 v 0.5 c 0,-0.554 0.446,-1 1,-1 h 5.5 c 1.5,0 2,2 3.5,2 h 9 c 0.554,0 1,0.446 1,1 V 6 C 22,5.446 21.554,5 21,5 H 12 C 10.5,5 10,3 8.5,3 Z"
     id="path4" />
  <path
     style="fill:#000000;fill-opacity:1;opacity:0.6"
     d="m 12,11 c -2.2092,0 -4,1.791 -4,4 0,2.209 1.7908,4 4,4 2.209,0 4,-1.791 4,-4 0,-2.209 -1.791,-4 -4,-4 z m -0.286,1.107 c 0.038,-0.004 0.087,0.002 0.125,0 0.005,0.018 -0.028,0.083 -0.071,0.179 -0.278,0.606 -0.294,1.316 -0.036,1.696 0.047,0.069 0.089,0.134 0.089,0.143 0,0.008 -0.05,0.018 -0.107,0.018 -0.133,0 -0.26,-0.082 -0.518,-0.286 -0.114,-0.091 -0.263,-0.167 -0.321,-0.179 -0.091,-0.018 -0.115,-0.01 -0.232,0.108 -0.109,0.109 -0.143,0.168 -0.143,0.267 0,0.379 0.45,0.68 1.286,0.858 1.135,0.24 1.415,0.456 1.446,1.053 0.039,0.749 -0.359,1.313 -1.232,1.75 -0.104,0.052 -0.171,0.072 -0.214,0.089 -0.02,-0.001 -0.035,0.002 -0.054,0 -0.007,-0.023 -0.018,-0.076 -0.018,-0.178 0,-0.398 -0.156,-0.807 -0.393,-1.036 -0.063,-0.061 -0.24,-0.192 -0.392,-0.286 -0.152,-0.094 -0.306,-0.203 -0.34,-0.25 -0.056,-0.077 -0.061,-0.125 -0.018,-0.267 0.08,-0.262 0.174,-0.407 0.358,-0.572 0.096,-0.086 0.193,-0.159 0.214,-0.161 C 11.164,15.052 11.02,15.008 10.804,14.964 10.587,14.92 10.271,14.827 10.107,14.768 9.8079,14.659 9.404,14.432 9.25,14.268 9.2435,14.261 9.2378,14.256 9.2322,14.25 c 0.2206,-0.879 0.8398,-1.599 1.6608,-1.947 0.172,-0.072 0.349,-0.122 0.536,-0.16 0.093,-0.019 0.189,-0.026 0.285,-0.036 z m 2.679,1.339 c 0.067,0.042 0.32,0.59 0.393,0.857 0.093,0.346 0.086,0.943 0,1.286 -0.033,0.131 -0.076,0.253 -0.09,0.268 -0.014,0.015 -0.065,-0.072 -0.125,-0.179 -0.06,-0.106 -0.251,-0.332 -0.41,-0.5 -0.46,-0.484 -0.532,-0.738 -0.34,-1.125 0.097,-0.195 0.52,-0.639 0.572,-0.607 z"
     id="path5-6" />
</svg>
