<?xml version="1.0" encoding="UTF-8" standalone="no"?>
<svg
   width="24"
   height="24"
   version="1"
   id="svg4"
   sodipodi:docname="folder-design.svg"
   inkscape:version="1.4.2 (ebf0e940d0, 2025-05-08)"
   xmlns:inkscape="http://www.inkscape.org/namespaces/inkscape"
   xmlns:sodipodi="http://sodipodi.sourceforge.net/DTD/sodipodi-0.dtd"
   xmlns="http://www.w3.org/2000/svg"
   xmlns:svg="http://www.w3.org/2000/svg">
  <sodipodi:namedview
     id="namedview4"
     pagecolor="#505050"
     bordercolor="#ffffff"
     borderopacity="1"
     inkscape:showpageshadow="0"
     inkscape:pageopacity="0"
     inkscape:pagecheckerboard="1"
     inkscape:deskcolor="#505050"
     inkscape:zoom="17.206265"
     inkscape:cx="9.6476484"
     inkscape:cy="16.098787"
     inkscape:window-width="1176"
     inkscape:window-height="608"
     inkscape:window-x="0"
     inkscape:window-y="0"
     inkscape:window-maximized="1"
     inkscape:current-layer="svg4" />
  <defs
     id="defs1">
    <style
       id="current-color-scheme"
       type="text/css">
  .ColorScheme-Highlight{color:#00ff00;}
 </style>
  </defs>
  <rect
     style="display:inline;opacity:0.2"
     width="20"
     height="12"
     x="2"
     y="9.5"
     rx="1"
     ry="1"
     id="rect1" />
  <path
     style="display:inline;fill:currentColor"
     d="m 2,17 c 0,0.554 0.446,1 1,1 h 18 c 0.554,0 1,-0.446 1,-1 V 6 C 22,5.446 21.554,5 21,5 H 12 C 10.5,5 10,3 8.5,3 H 3 C 2.446,3 2,3.446 2,4"
     id="path5"
     class="ColorScheme-Highlight" />
  <path
     style="display:inline;fill:#000000;fill-opacity:1;opacity:0.25"
     d="m 2,17 c 0,0.554 0.446,1 1,1 h 18 c 0.554,0 1,-0.446 1,-1 V 6 C 22,5.446 21.554,5 21,5 H 12 C 10.5,5 10,3 8.5,3 H 3 C 2.446,3 2,3.446 2,4"
     id="path1" />
  <rect
     style="display:inline;opacity:0.2"
     width="20"
     height="12"
     x="2"
     y="8.5"
     rx="1"
     ry="1"
     id="rect2" />
  <rect
     style="fill:#e4e4e4"
     width="16"
     height="8"
     x="4"
     y="7"
     rx="1"
     ry="1"
     id="rect3" />
  <rect
     style="fill:currentColor"
     width="20"
     height="12"
     x="2"
     y="9"
     rx="1"
     ry="1"
     id="rect4"
     class="ColorScheme-Highlight" />
  <path
     style="display:inline;opacity:0.2;fill:#ffffff"
     d="M 3,3 C 2.446,3 2,3.446 2,4 v 0.5 c 0,-0.554 0.446,-1 1,-1 h 5.5 c 1.5,0 2,2 3.5,2 h 9 c 0.554,0 1,0.446 1,1 V 6 C 22,5.446 21.554,5 21,5 H 12 C 10.5,5 10,3 8.5,3 Z"
     id="path4" />
  <path
     d="m 15.334918,19.29244 -0.42227,-0.79165 c 0.11665,-0.12865 0.14838,-0.32049 0.0618,-0.48259 l -1.0035,-1.88062 h 0.62983 c 0.1561,0 0.2819,-0.12637 0.2819,-0.28189 0,-0.15582 -0.1258,-0.2819 -0.2819,-0.2819 h -0.93059 l -0.47544,-0.89199 c 0.41769,-0.35794 0.68357,-0.88828 0.68357,-1.4818 0,-0.98234 -0.72646,-1.79285 -1.67106,-1.9298 v -0.48802 c 2.9e-4,-0.15581 -0.12579,-0.28218 -0.2816,-0.28218 -0.15582,0 -0.2819,0.12637 -0.2819,0.28218 v 0.48745 c -0.9446,0.13695 -1.6710602,0.94746 -1.6710602,1.9298 0,0.59352 0.2656002,1.12385 0.6830102,1.4818 l -0.47545,0.89171 H 9.5212674 c -0.15581,0 -0.28189,0.12608 -0.28189,0.28189 0,0.15553 0.12608,0.28189 0.28189,0.28189 h 0.35851 l -1.0032,1.88062 c -0.0863,0.16239 -0.0552,0.35452 0.062,0.48317 l -0.42199,0.79164 c -0.0366,0.0686 -0.0106,0.1541 0.058,0.1907 0.0212,0.0112 0.044,0.0166 0.0663,0.0166 0.0503,0 0.0992,-0.0269 0.12465,-0.0743 l 0.42284,-0.79222 c 0.0203,0.003 0.0409,0.007 0.0612,0.007 0.15124,0 0.29762,-0.0815 0.37367,-0.22386 l 1.2153406,-2.27888 h 2.17424 l 1.21534,2.27888 c 0.0761,0.14295 0.22214,0.22386 0.37338,0.22386 0.0206,0 0.0417,-0.004 0.062,-0.007 l 0.42284,0.79222 c 0.0254,0.0475 0.0743,0.0749 0.12494,0.0749 0.0223,0 0.0449,-0.006 0.066,-0.0169 0.068,-0.0366 0.0941,-0.12208 0.0575,-0.19069 z m -4.19552,-3.71922 0.26331,-0.49403 c 0.16668,0.0463 0.34136,0.0732 0.52291,0.0732 0.18154,0 0.35679,-0.0269 0.52347,-0.0732 l 0.26331,0.49432 z m 0.53834,-1.01007 0.24788,-0.46458 0.24787,0.46458 c -0.0809,0.0146 -0.16296,0.0252 -0.24816,0.0252 -0.0846,0 -0.16696,-0.0103 -0.24759,-0.0252 z m 1.24251,-0.39797 -0.42656,-0.79993 c -0.0901,-0.16982 -0.2676,-0.27589 -0.46001,-0.27589 h -0.21585 c -0.19241,0 -0.36937,0.10607 -0.45972,0.27589 l -0.42684,0.80022 c -0.24301,-0.25016 -0.39425,-0.59009 -0.39425,-0.96576 0,-0.76562 0.62297,-1.38859 1.3886,-1.38859 0.76562,0 1.38888,0.62297 1.38888,1.38859 -2.9e-4,0.37539 -0.15153,0.7156 -0.39425,0.96547 z"
     id="path1-3"
     style="opacity:0.6;fill:#000000;fill-opacity:1;stroke-width:0.285896" />
</svg>
