<?xml version="1.0" encoding="UTF-8" standalone="no"?>
<svg
   width="24"
   height="24"
   version="1"
   id="svg4"
   sodipodi:docname="folder-syncthing.svg"
   inkscape:version="1.4.2 (ebf0e940d0, 2025-05-08)"
   xmlns:inkscape="http://www.inkscape.org/namespaces/inkscape"
   xmlns:sodipodi="http://sodipodi.sourceforge.net/DTD/sodipodi-0.dtd"
   xmlns="http://www.w3.org/2000/svg"
   xmlns:svg="http://www.w3.org/2000/svg">
  <sodipodi:namedview
     id="namedview4"
     pagecolor="#505050"
     bordercolor="#ffffff"
     borderopacity="1"
     inkscape:showpageshadow="0"
     inkscape:pageopacity="0"
     inkscape:pagecheckerboard="1"
     inkscape:deskcolor="#505050"
     inkscape:zoom="12.166667"
     inkscape:cx="11.178082"
     inkscape:cy="9.0410959"
     inkscape:window-width="1176"
     inkscape:window-height="608"
     inkscape:window-x="0"
     inkscape:window-y="0"
     inkscape:window-maximized="1"
     inkscape:current-layer="svg4" />
  <defs
     id="defs1">
    <style
       id="current-color-scheme"
       type="text/css">
  .ColorScheme-Highlight{color:#00ff00;}
 </style>
  </defs>
  <rect
     style="display:inline;opacity:0.2"
     width="20"
     height="12"
     x="2"
     y="9.5"
     rx="1"
     ry="1"
     id="rect1" />
  <path
     style="display:inline;fill:currentColor"
     d="m 2,17 c 0,0.554 0.446,1 1,1 h 18 c 0.554,0 1,-0.446 1,-1 V 6 C 22,5.446 21.554,5 21,5 H 12 C 10.5,5 10,3 8.5,3 H 3 C 2.446,3 2,3.446 2,4"
     id="path5"
     class="ColorScheme-Highlight" />
  <path
     style="display:inline;fill:#000000;fill-opacity:1;opacity:0.25"
     d="m 2,17 c 0,0.554 0.446,1 1,1 h 18 c 0.554,0 1,-0.446 1,-1 V 6 C 22,5.446 21.554,5 21,5 H 12 C 10.5,5 10,3 8.5,3 H 3 C 2.446,3 2,3.446 2,4"
     id="path1" />
  <rect
     style="display:inline;opacity:0.2"
     width="20"
     height="12"
     x="2"
     y="8.5"
     rx="1"
     ry="1"
     id="rect2" />
  <rect
     style="fill:#e4e4e4"
     width="16"
     height="8"
     x="4"
     y="7"
     rx="1"
     ry="1"
     id="rect3" />
  <rect
     style="fill:currentColor"
     width="20"
     height="12"
     x="2"
     y="9"
     rx="1"
     ry="1"
     id="rect4"
     class="ColorScheme-Highlight" />
  <path
     style="display:inline;opacity:0.2;fill:#ffffff"
     d="M 3,3 C 2.446,3 2,3.446 2,4 v 0.5 c 0,-0.554 0.446,-1 1,-1 h 5.5 c 1.5,0 2,2 3.5,2 h 9 c 0.554,0 1,0.446 1,1 V 6 C 22,5.446 21.554,5 21,5 H 12 C 10.5,5 10,3 8.5,3 Z"
     id="path4" />
  <path
     d="m 11.413,11.025198 c -0.59,0.094 -1.212,0.34 -1.702,0.672 a 4.033,4.033 0 0 0 -1.716,2.95 l -0.026,0.322 -0.204,0.048 a 1.021,1.021 0 0 0 -0.644,0.466 c -0.107,0.173 -0.121,0.231 -0.121,0.499 0,0.259 0.016,0.33 0.111,0.492 0.245,0.416 0.754,0.611 1.189,0.455 l 0.139,-0.051 0.187,0.284 a 4.05,4.05 0 0 0 2.349,1.694 c 0.336,0.091 0.463,0.104 1.005,0.104 0.542,0 0.669,-0.013 1.005,-0.104 0.211,-0.057 0.543,-0.179 0.736,-0.271 0.33,-0.158 0.354,-0.164 0.391,-0.094 0.142,0.261 0.551,0.494 0.868,0.494 0.527,0 1,-0.473 1,-1 0,-0.318 -0.233,-0.726 -0.497,-0.869 -0.072,-0.039 -0.068,-0.058 0.093,-0.388 0.391,-0.799 0.504,-1.809 0.297,-2.653 -0.019,-0.08 -0.007,-0.09 0.116,-0.09 0.233,0 0.515,-0.122 0.692,-0.299 a 0.984,0.984 0 0 0 0,-1.402 0.985,0.985 0 0 0 -1.407,0.004 l -0.171,0.171 -0.291,-0.29 a 4.211,4.211 0 0 0 -1.874,-1.064 c -0.386,-0.094 -1.175,-0.136 -1.525,-0.08 m 1.288,0.54 c 0.839,0.177 1.671,0.727 2.133,1.41 0.308,0.456 0.334,0.407 -0.456,0.88 l -0.685,0.411 -0.114,-0.082 c -0.597,-0.425 -1.393,-0.127 -1.576,0.591 l -0.047,0.184 -1.478,0.331 c -0.813,0.182 -1.496,0.332 -1.518,0.333 -0.022,10e-4 -0.081,-0.07 -0.131,-0.158 a 0.94,0.94 0 0 0 -0.21,-0.247 c -0.113,-0.084 -0.119,-0.103 -0.119,-0.378 0,-1.058 0.635,-2.173 1.589,-2.791 a 3.799,3.799 0 0 1 1.14,-0.481 c 0.345,-0.076 1.119,-0.077 1.472,-0.003 m 2.673,2.563 c 0.03,0.108 0.064,0.427 0.075,0.709 0.028,0.701 -0.055,1.117 -0.336,1.684 -0.244,0.493 -0.17,0.517 -0.785,-0.25 l -0.542,-0.677 0.087,-0.175 a 0.986,0.986 0 0 0 0.091,-0.454 l 0.004,-0.28 0.636,-0.387 c 0.35,-0.212 0.654,-0.382 0.676,-0.377 0.022,0.006 0.064,0.099 0.094,0.207 m -2.855,1.735 c 0.206,0.106 0.562,0.138 0.781,0.071 0.092,-0.028 0.137,0.016 0.594,0.591 l 0.493,0.621 -0.126,0.144 c -0.117,0.133 -0.162,0.216 -0.274,0.502 -0.092,0.233 -0.979,0.597 -1.639,0.672 a 3.517,3.517 0 0 1 -2.495,-0.705 3.82,3.82 0 0 1 -0.851,-0.952 l -0.168,-0.277 0.064,-0.171 a 0.981,0.981 0 0 1 0.096,-0.202 c 0.017,-0.018 0.718,-0.185 1.558,-0.373 l 1.527,-0.341 0.121,0.159 c 0.066,0.087 0.21,0.205 0.319,0.261"
     fill-rule="evenodd"
     id="path1-7"
     style="fill:#000000;fill-opacity:1;opacity:0.6" />
</svg>
