<?xml version="1.0" encoding="UTF-8" standalone="no"?>
<svg
   width="24"
   height="24"
   version="1"
   id="svg4"
   sodipodi:docname="folder-owncloud.svg"
   inkscape:version="1.4.2 (ebf0e940d0, 2025-05-08)"
   xmlns:inkscape="http://www.inkscape.org/namespaces/inkscape"
   xmlns:sodipodi="http://sodipodi.sourceforge.net/DTD/sodipodi-0.dtd"
   xmlns="http://www.w3.org/2000/svg"
   xmlns:svg="http://www.w3.org/2000/svg">
  <sodipodi:namedview
     id="namedview4"
     pagecolor="#505050"
     bordercolor="#ffffff"
     borderopacity="1"
     inkscape:showpageshadow="0"
     inkscape:pageopacity="0"
     inkscape:pagecheckerboard="1"
     inkscape:deskcolor="#505050"
     inkscape:zoom="12.166667"
     inkscape:cx="4.3561644"
     inkscape:cy="12.164384"
     inkscape:window-width="1176"
     inkscape:window-height="608"
     inkscape:window-x="0"
     inkscape:window-y="0"
     inkscape:window-maximized="1"
     inkscape:current-layer="svg4" />
  <defs
     id="defs1">
    <style
       id="current-color-scheme"
       type="text/css">
  .ColorScheme-Highlight{color:#00ff00;}
 </style>
  </defs>
  <rect
     style="display:inline;opacity:0.2"
     width="20"
     height="12"
     x="2"
     y="9.5"
     rx="1"
     ry="1"
     id="rect1" />
  <path
     style="display:inline;fill:currentColor"
     d="m 2,17 c 0,0.554 0.446,1 1,1 h 18 c 0.554,0 1,-0.446 1,-1 V 6 C 22,5.446 21.554,5 21,5 H 12 C 10.5,5 10,3 8.5,3 H 3 C 2.446,3 2,3.446 2,4"
     id="path5"
     class="ColorScheme-Highlight" />
  <path
     style="display:inline;fill:#000000;fill-opacity:1;opacity:0.25"
     d="m 2,17 c 0,0.554 0.446,1 1,1 h 18 c 0.554,0 1,-0.446 1,-1 V 6 C 22,5.446 21.554,5 21,5 H 12 C 10.5,5 10,3 8.5,3 H 3 C 2.446,3 2,3.446 2,4"
     id="path1" />
  <rect
     style="display:inline;opacity:0.2"
     width="20"
     height="12"
     x="2"
     y="8.5"
     rx="1"
     ry="1"
     id="rect2" />
  <rect
     style="fill:#e4e4e4"
     width="16"
     height="8"
     x="4"
     y="7"
     rx="1"
     ry="1"
     id="rect3" />
  <rect
     style="fill:currentColor"
     width="20"
     height="12"
     x="2"
     y="9"
     rx="1"
     ry="1"
     id="rect4"
     class="ColorScheme-Highlight" />
  <path
     style="display:inline;opacity:0.2;fill:#ffffff"
     d="M 3,3 C 2.446,3 2,3.446 2,4 v 0.5 c 0,-0.554 0.446,-1 1,-1 h 5.5 c 1.5,0 2,2 3.5,2 h 9 c 0.554,0 1,0.446 1,1 V 6 C 22,5.446 21.554,5 21,5 H 12 C 10.5,5 10,3 8.5,3 Z"
     id="path4" />
  <path
     style="fill:#000000;fill-opacity:1;opacity:0.6"
     d="m 11.25,10.75 c -0.829907,0 -1.5,0.670093 -1.5,1.5 0,0.407296 0.161352,0.775906 0.423828,1.045899 0.02147,-0.02301 0.04409,-0.04519 0.06641,-0.06738 0.01077,-0.01071 0.02126,-0.02171 0.03223,-0.03223 0.02316,-0.02223 0.04631,-0.0441 0.07031,-0.06543 8.5e-4,-7.5e-4 0.0021,-0.0012 0.003,-0.0019 0.009,-0.008 0.01823,-0.01559 0.02735,-0.02344 C 10.810444,12.728832 11.378306,12.5 12,12.5 c 0.245914,0 0.483447,0.03601 0.708008,0.102539 0.02718,-0.113161 0.04199,-0.230905 0.04199,-0.352539 0,-0.829907 -0.670093,-1.5 -1.5,-1.5 z m -2,1 c -0.415693,0 -0.75,0.334307 -0.75,0.75 0,0.08628 0.01447,0.169089 0.04101,0.246094 C 8.82591,12.589637 9.152534,12.5 9.5,12.5 c 0.0062,0 0.01238,-5.6e-5 0.01855,0 C 9.506864,12.41828 9.5,12.334896 9.5,12.25 9.5,12.099332 9.51864,11.953067 9.55469,11.813477 9.461797,11.772447 9.358467,11.749997 9.25,11.749997 Z m 4,0 c -0.107962,0 -0.213023,0.01164 -0.314453,0.03321 0.04146,0.148839 0.06445,0.304883 0.06445,0.46679 0,0.150453 -0.0198,0.296139 -0.05566,0.435547 0.503118,0.206017 0.924575,0.571179 1.201172,1.033203 -0.0042,-0.007 -0.0075,-0.01455 -0.01172,-0.02149 0.183554,-0.08855 0.382502,-0.148935 0.591797,-0.177734 0.01581,-0.08748 0.02441,-0.1774 0.02441,-0.269526 0,-0.829907 -0.670093,-1.5 -1.5,-1.5 z m -3.75,1 c -0.967978,0 -1.75,0.782022 -1.75,1.75 0,0.648863 0.351751,1.213415 0.875,1.515625 C 8.796141,15.708409 9.124702,15.5 9.5,15.5 c 0.01689,0 0.0341,1.42e-4 0.05078,10e-4 C 9.517583,15.339005 9.5,15.171699 9.5,15 c 0,-0.568744 0.190992,-1.093483 0.511719,-1.513672 -0.201792,-0.202105 -0.353666,-0.453699 -0.4375,-0.734375 -0.02473,-10e-4 -0.04923,-0.002 -0.07422,-0.002 z m 2.5,0 c -1.24412,0 -2.25,1.00588 -2.25,2.25 0,1.24412 1.00588,2.25 2.25,2.25 1.24412,0 2.25,-1.00588 2.25,-2.25 0,-1.24412 -1.00588,-2.25 -2.25,-2.25 z m 3,1 c -0.267285,0 -0.520691,0.05931 -0.74707,0.166016 C 14.41129,14.244166 14.5,14.611735 14.5,15 c 0,0.683425 -0.275286,1.303284 -0.720703,1.754883 C 14.09435,17.061343 14.524762,17.25 15,17.25 c 0.967978,0 1.75,-0.782022 1.75,-1.75 0,-0.967978 -0.782022,-1.75 -1.75,-1.75 z M 7.513672,14.268555 C 6.796615,14.381622 6.25,15.000606 6.25,15.75 c 0,0.829907 0.670093,1.5 1.5,1.5 0.324909,0 0.624819,-0.103527 0.870117,-0.278321 C 8.543987,16.830845 8.5,16.67073 8.5,16.5 8.5,16.41319 8.51127,16.329421 8.53223,16.249023 7.917154,15.907827 7.5,15.252107 7.5,14.5 7.5,14.42172 7.5047,14.344418 7.51367,14.268555 Z M 9.5,15.75 c -0.415693,0 -0.75,0.334306 -0.75,0.75 0,0.415693 0.334307,0.75 0.75,0.75 0.330498,0 0.609461,-0.211308 0.709961,-0.506836 C 9.942702,16.46875 9.738475,16.133238 9.619141,15.759765 9.580251,15.753565 9.540691,15.749965 9.5,15.749965 Z m 7.484375,0 c -0.05794,0.463332 -0.274331,0.8783 -0.59375,1.1875 C 16.526469,17.126781 16.748067,17.25 17,17.25 c 0.415693,0 0.75,-0.334307 0.75,-0.75 0,-0.415694 -0.334307,-0.75 -0.75,-0.75 -0.0052,0 -0.01046,-1.04e-4 -0.01563,0 z"
     id="path5-6" />
</svg>
