<?xml version="1.0" encoding="UTF-8" standalone="no"?>
<svg
   width="24"
   height="24"
   version="1.1"
   id="svg4"
   sodipodi:docname="user-desktop.svg"
   inkscape:version="1.4.2 (ebf0e940d0, 2025-05-08)"
   xmlns:inkscape="http://www.inkscape.org/namespaces/inkscape"
   xmlns:sodipodi="http://sodipodi.sourceforge.net/DTD/sodipodi-0.dtd"
   xmlns="http://www.w3.org/2000/svg"
   xmlns:svg="http://www.w3.org/2000/svg">
  <sodipodi:namedview
     id="namedview4"
     pagecolor="#505050"
     bordercolor="#ffffff"
     borderopacity="1"
     inkscape:showpageshadow="0"
     inkscape:pageopacity="0"
     inkscape:pagecheckerboard="1"
     inkscape:deskcolor="#505050"
     inkscape:zoom="11.785113"
     inkscape:cx="10.139911"
     inkscape:cy="9.6732208"
     inkscape:window-width="1176"
     inkscape:window-height="608"
     inkscape:window-x="0"
     inkscape:window-y="0"
     inkscape:window-maximized="1"
     inkscape:current-layer="svg4" />
  <defs
     id="defs1">
    <style
       id="current-color-scheme"
       type="text/css">.ColorScheme-Highlight{color:#00ff00;}</style>
  </defs>
  <rect
     style="display:inline;opacity:0.2"
     width="20"
     height="18"
     x="2"
     y="3.5"
     rx="1"
     ry="1"
     id="rect1" />
  <path
     style="display:inline;fill:currentColor"
     d="M 2,4.9 V 20 c 0,0.554 0.446,1 1,1 h 18 c 0.554,0 1,-0.446 1,-1 V 4.9 Z"
     id="path1"
     class="ColorScheme-Highlight" />
  <path
     style="display:inline;fill:currentColor"
     d="M 3,3 C 2.446,3 2,3.45 2,4 V 5 H 22 V 4 C 22,3.45 21.554,3 21,3 Z"
     id="path2"
     class="ColorScheme-Highlight" />
  <path
     style="display:inline;fill:#000000;fill-opacity:1;opacity:0.6"
     d="M 3,3 C 2.446,3 2,3.45 2,4 V 5 H 22 V 4 C 22,3.45 21.554,3 21,3 Z"
     id="path5" />
  <path
     style="fill:#000000;fill-opacity:1;opacity:0.6"
     d="M 8,19 C 7.446,19 7,19.45 7,20 V 21 H 17 V 20 C 17,19.45 16.554,19 16,19 Z"
     id="path3" />
  <path
     style="opacity:0.1;fill:#ffffff"
     d="M 3,3 C 2.446,3 2,3.45 2,4 V 4.5 C 2,3.95 2.446,3.5 3,3.5 H 21 C 21.554,3.5 22,3.95 22,4.5 V 4 C 22,3.45 21.554,3 21,3 Z"
     id="path4" />
</svg>
