<?xml version="1.0" encoding="UTF-8" standalone="no"?>
<!-- Generator: Adobe Illustrator 18.1.1, SVG Export Plug-In . SVG Version: 6.00 Build 0)  -->

<svg
   version="1.1"
   id="Capa_1"
   x="0px"
   y="0px"
   viewBox="0 0 32 32"
   style="enable-background:new 0 0 32 32;"
   xml:space="preserve"
   sodipodi:docname="org.kde.fancontrol.gui.svg"
   inkscape:version="1.4.2 (ebf0e940d0, 2025-05-08)"
   xmlns:inkscape="http://www.inkscape.org/namespaces/inkscape"
   xmlns:sodipodi="http://sodipodi.sourceforge.net/DTD/sodipodi-0.dtd"
   xmlns="http://www.w3.org/2000/svg"
   xmlns:svg="http://www.w3.org/2000/svg"><sodipodi:namedview
   id="namedview16"
   pagecolor="#505050"
   bordercolor="#ffffff"
   borderopacity="1"
   inkscape:showpageshadow="0"
   inkscape:pageopacity="0"
   inkscape:pagecheckerboard="1"
   inkscape:deskcolor="#505050"
   inkscape:zoom="4.4194174"
   inkscape:cx="5.9962655"
   inkscape:cy="6.1094026"
   inkscape:window-width="1176"
   inkscape:window-height="608"
   inkscape:window-x="0"
   inkscape:window-y="0"
   inkscape:window-maximized="1"
   inkscape:current-layer="g1" /><defs
   id="defs1"><style
     id="current-color-scheme"
     type="text/css">.ColorScheme-Text{color:#ffffff;}.ColorScheme-Background{color:#000000;}</style></defs>
<g
   id="g1"
   style="display:inline">
	<path
   style="display:inline;fill:currentColor"
   d="m 24,20 c 6,0 8,-2 8,-2 0,-4 -2,-6 -2,-6 -2.752,1.835 -5.918,2.822 -8.547,3.36 0.97,-0.464 2,-1.157 3.031,-2.188 C 28.728,8.929 28.728,6.101 28.728,6.101 25.898,3.273 23.07,3.273 23.07,3.273 22.422,6.516 20.882,9.453 19.402,11.691 19.762,10.676 20,9.458 20,8 20,2 18,0 18,0 14,0 12,2 12,2 13.835,4.753 14.823,7.919 15.36,10.548 14.896,9.577 14.203,8.547 13.171,7.514 8.929,3.272 6.101,3.272 6.101,3.272 3.272,6.101 3.272,8.929 3.272,8.929 6.516,9.578 9.452,11.118 11.691,12.597 10.677,12.239 9.458,12 8,12 c -6,0 -8,2 -8,2 0,4 2,6 2,6 2.753,-1.835 5.919,-2.822 8.548,-3.359 -0.971,0.465 -2.001,1.156 -3.034,2.188 -4.243,4.241 -4.243,7.069 -4.243,7.069 2.829,2.828 5.657,2.828 5.657,2.828 0.649,-3.242 2.189,-6.181 3.668,-8.42 C 12.239,21.322 12,22.541 12,24 c 0,6 2,8 2,8 4,0 6,-2 6,-2 -1.835,-2.752 -2.822,-5.918 -3.359,-8.547 0.463,0.971 1.156,2.001 2.188,3.031 4.242,4.242 7.07,4.242 7.07,4.242 2.83,-2.828 2.83,-5.656 2.83,-5.656 C 25.483,22.423 22.545,20.882 20.307,19.402 21.32,19.761 22.541,20 24,20 Z"
   id="path1"
   class="ColorScheme-Text" />
<path
   style="display:inline;fill:currentColor;opacity:0.1"
   d="m 24,20 c 6,0 8,-2 8,-2 0,-4 -2,-6 -2,-6 -2.752,1.835 -5.918,2.822 -8.547,3.36 0.97,-0.464 2,-1.157 3.031,-2.188 C 28.728,8.929 28.728,6.101 28.728,6.101 25.898,3.273 23.07,3.273 23.07,3.273 22.422,6.516 20.882,9.453 19.402,11.691 19.762,10.676 20,9.458 20,8 20,2 18,0 18,0 14,0 12,2 12,2 13.835,4.753 14.823,7.919 15.36,10.548 14.896,9.577 14.203,8.547 13.171,7.514 8.929,3.272 6.101,3.272 6.101,3.272 3.272,6.101 3.272,8.929 3.272,8.929 6.516,9.578 9.452,11.118 11.691,12.597 10.677,12.239 9.458,12 8,12 c -6,0 -8,2 -8,2 0,4 2,6 2,6 2.753,-1.835 5.919,-2.822 8.548,-3.359 -0.971,0.465 -2.001,1.156 -3.034,2.188 -4.243,4.241 -4.243,7.069 -4.243,7.069 2.829,2.828 5.657,2.828 5.657,2.828 0.649,-3.242 2.189,-6.181 3.668,-8.42 C 12.239,21.322 12,22.541 12,24 c 0,6 2,8 2,8 4,0 6,-2 6,-2 -1.835,-2.752 -2.822,-5.918 -3.359,-8.547 0.463,0.971 1.156,2.001 2.188,3.031 4.242,4.242 7.07,4.242 7.07,4.242 2.83,-2.828 2.83,-5.656 2.83,-5.656 C 25.483,22.423 22.545,20.882 20.307,19.402 21.32,19.761 22.541,20 24,20 Z"
   id="path16"
   class="ColorScheme-Background" /></g>
<g
   id="g2">
</g>
<g
   id="g3">
</g>
<g
   id="g4">
</g>
<g
   id="g5">
</g>
<g
   id="g6">
</g>
<g
   id="g7">
</g>
<g
   id="g8">
</g>
<g
   id="g9">
</g>
<g
   id="g10">
</g>
<g
   id="g11">
</g>
<g
   id="g12">
</g>
<g
   id="g13">
</g>
<g
   id="g14">
</g>
<g
   id="g15">
</g>
<g
   id="g16">
</g>
</svg>
